<?xml version="1.0" encoding="utf-8"?>
<!-- Generator: Adobe Illustrator 21.1.0, SVG Export Plug-In . SVG Version: 6.00 Build 0)  -->
<svg version="1.1" id="ganhou" xmlns="http://www.w3.org/2000/svg" xmlns:xlink="http://www.w3.org/1999/xlink" x="0px" y="0px"
	 viewBox="0 0 724.8 273.3" style="enable-background:new 0 0 724.8 273.3;" width="724" height="273" xml:space="preserve">
<style type="text/css">
	.st0{fill:#8CC63F;}
	.st1{fill:#FFFFFF;}
</style>
<g>
	<g>
		<path class="st0" d="M379.6,95.6c-1.4,0-2.9-0.1-4.4-0.3c-4.3-0.6-8.3-2.1-11.7-4.2c-2.5,0.5-5.4,0.8-9,0.8c-0.5,0-1.1,0-1.7,0
			c-3,0-5.6-0.2-7.9-0.5c-3.9-0.6-7.3-2-10.1-4.3c-2.3,0.7-4.7,1.1-7,1.1c-1.1,0-2.3-0.1-3.4-0.3c-5.6-0.8-10.2-2.8-13.8-5.8
			c-2.8,0.8-5.6,1.2-8.3,1.2c-1.4,0-2.8-0.1-4.2-0.3c-2.7-0.4-5.3-1.2-7.7-2.4c-1.4,0.4-2.9,0.6-4.4,0.6c-1.1,0-2.2-0.1-3.2-0.3
			c-2.5-0.5-5.6-1.6-8.4-4.3c-2.3,1.1-4.8,1.7-7.4,1.7c-0.9,0-1.8-0.1-2.6-0.2c-3.4-0.5-6.5-1.9-9-4.2c-2.1,0.9-4.3,1.3-6.6,1.3
			c-0.9,0-1.7-0.1-2.6-0.2c-2.9-0.4-5.5-1.5-7.8-3.1c-2.3,1.2-4.9,1.9-7.6,2c-0.3,0-0.6,0-0.9,0c-2.2,0-5.1-0.3-9.7-1
			c-8.1-1.2-13.3-3.6-16.9-7.9c-2.7,1.6-5.7,2.4-8.9,2.4c-0.9,0-1.8-0.1-2.6-0.2c-2.3-0.3-4.6-1.2-6.6-2.4c-2.2,0.4-4.5,0.6-6.8,0.6
			c-2,0-4.2-0.2-6.3-0.5c-3-0.4-5.7-1.2-8.2-2.4c-1.3,0.4-2.7,0.6-4.2,0.6c-0.3,0-0.6,0-0.9,0c-2.2,0-5.1-0.3-9.7-1
			c-5.5-0.8-12.4-2.5-17-8.1c-6.1-7.3-4.7-16.9-4.2-20c0.3-2,0.9-4.8,1.7-8.6c0.7-3.2,1.1-5,1.2-6c0-0.1,0-0.1,0-0.2
			c0-1.6,0.1-2.9,0.3-4.1c1.3-9,8.4-15.3,17.3-15.3c0.9,0,1.9,0.1,2.8,0.2c0.6,0.1,1.2,0.2,1.7,0.4c0.5,0,0.9,0,1.4,0l0.5,0
			c2,0,4,0.2,5.8,0.4c5,0.8,9.2,2.1,12.6,4c1.3,0.7,2.5,1.6,3.6,2.6c1.7-0.3,3.4-0.5,5.1-0.5c1.4,0,2.8,0.1,4.2,0.3
			c2,0.3,4.1,0.9,6.3,1.8c2.9-1.2,5.4-1.3,6.5-1.3c0.4,0,0.7,0,1.1,0l0.2,0c0.7,0,1.4,0,2.2,0.1c1.1,0.1,2.4,0.2,3.8,0.4
			c3,0.4,5.8,1.4,8.5,2.8c1.5-0.4,3.2-0.7,4.8-0.7c0.9,0,1.9,0.1,2.8,0.2c0.6,0.1,1.2,0.2,1.8,0.4c0.5,0,1,0,1.4,0l0.4,0
			c2,0,4,0.2,5.8,0.4c4.6,0.7,8.4,1.8,11.6,3.5c0.7,0.1,1.3,0.2,1.9,0.3c0.5,0.1,1.4,0.3,3.7,1c0.8,0.2,1.2,0.3,1.2,0.3
			c0.7,0.1,1.7,0.2,3.2,0.4c1.6,0.2,2.9,0.4,3.7,0.5c1.3,0.2,3,0.5,5.3,1c2.1,0.5,3,0.6,3.2,0.6c2,0.3,4,0.9,5.7,1.9
			c0.8-1,1.8-1.9,2.8-2.7l0.4-0.3c0,0,1-0.7,1.4-0.9c2.2-1.7,2.8-2.2,3.5-2.7c3.6-2.4,7.3-3.6,11.1-3.6c0.9,0,1.7,0.1,2.6,0.2
			c4.3,0.6,8.2,2.9,11,6.2c2,2.4,3.2,5.2,3.7,8.2c0.3,0,0.6,0,0.9,0c1.2,0,2.3,0.1,3.5,0.3c0,0,0.1,0,0.1,0c0.6-0.1,1.3-0.1,1.9-0.1
			c0.9,0,1.8,0.1,2.7,0.2c1.8,0.3,3.5,0.8,5.1,1.6c0.7,0,1.5,0.1,2.2,0.2c3.6,0.5,6.8,2.1,9.4,4.5c2.4-1.1,5-1.7,7.6-1.7
			c0.9,0,1.8,0.1,2.7,0.2c0.8,0.1,1.6,0.3,2.4,0.5c1.3-0.3,2.6-0.4,3.9-0.4c0.9,0,1.8,0.1,2.7,0.2c4.7,0.7,8.8,3.2,11.6,6.9
			c0.6,0.8,1.2,1.7,1.6,2.7c4.6-3,9.8-4.5,15.3-4.5c1.4,0,2.9,0.1,4.4,0.3c8.2,1.2,14.5,4.5,18.8,9.9c3.2,3.9,6.6,10.8,5.1,21.1
			c-1.1,7.4-4.3,13.8-9.4,19.2C394.5,92.5,387.4,95.6,379.6,95.6z"/>
		<path class="st1" d="M149.7,57.3c4.3,0.6,7,0.9,9,0.9c0.3,0,0.5,0,0.7,0c1.7-0.1,3.3-0.4,4.7-1.1c2.5,1.4,5.3,2.4,8.6,2.9
			c1.9,0.3,3.7,0.4,5.5,0.4c2.7,0,5.4-0.3,7.9-1c1.7,1.5,3.9,2.4,6.2,2.8c0.6,0.1,1.3,0.1,1.9,0.1c2.7,0,5.3-0.9,7.5-2.5
			c1-0.8,1.9-1.7,2.6-2.7c0.5,1.6,1.3,3.1,2.5,4.5c2.8,3.3,7.1,5.3,13.9,6.3c4.3,0.6,7,0.9,9,0.9c0.3,0,0.5,0,0.7,0
			c3.3-0.1,6.1-1.4,8.3-3.4c0.1,0.1,0.2,0.3,0.3,0.4c2,2.3,4.7,3.7,7.7,4.2c0.6,0.1,1.2,0.1,1.9,0.1c2.8,0,5.5-1,7.6-2.7
			c0.3,0.4,0.6,0.9,1,1.3c2.1,2.4,4.8,3.8,7.8,4.3c0.6,0.1,1.3,0.1,1.9,0.1c3.2,0,6.2-1.2,8.5-3.4c2.4,4.1,5.6,5.6,8.3,6.1
			c0.8,0.1,1.5,0.2,2.3,0.2c1.7,0,3.4-0.4,4.9-1c2.3,1.5,5,2.5,7.9,3c1.1,0.2,2.3,0.3,3.4,0.3c3.2,0,6.4-0.7,9.6-2
			c0.2,0.2,0.4,0.5,0.6,0.7c2.9,3.1,7.2,5,12.6,5.9c0.9,0.1,1.8,0.2,2.7,0.2c2.7,0,5.3-0.6,8-1.7c0.1,0,0.2-0.1,0.3-0.1
			c2.2,2.7,5.5,4.5,9.6,5.1c2,0.3,4.4,0.4,7.1,0.4c0.5,0,1,0,1.6,0c4.1-0.1,7.2-0.4,9.6-1.1c0.1,0,0.3-0.1,0.4-0.1
			c3.3,2.5,7.1,4,11.5,4.7c1.2,0.2,2.4,0.3,3.6,0.3c6.4,0,12.3-2.6,17-7.6c4.4-4.6,7.1-10.1,8.1-16.5c1.3-8.6-1.5-14.1-4-17.3
			c-3.5-4.3-8.8-7-15.7-8.1c-1.2-0.2-2.4-0.3-3.6-0.3c-6.3,0-12.1,2.5-17,7.2c-0.6,0.5-1.1,1.1-1.6,1.7c0.4-3.2-0.4-6.4-2.4-9.1
			c-2-2.7-5-4.5-8.3-5c-0.6-0.1-1.3-0.1-1.9-0.1c-1.4,0-2.8,0.2-4.1,0.7c-0.9-0.4-1.9-0.7-3-0.8c-0.7-0.1-1.3-0.1-2-0.1
			c-3.2,0-6.3,1.2-8.6,3.4c-0.4-0.7-0.9-1.4-1.5-2c-2-2.3-4.7-3.7-7.7-4.1c-0.6-0.1-1.2-0.1-1.8-0.1c-0.3,0-0.6,0-0.9,0.1
			c-1.4-0.9-3-1.5-4.7-1.7c-0.6-0.1-1.3-0.1-1.9-0.1c-0.7,0-1.4,0.1-2,0.2c-0.3,0-0.5-0.1-0.8-0.1c-0.9-0.1-1.8-0.2-2.8-0.2
			c-2.1,0-4.1,0.3-6.1,1c0.2-0.5,0.3-1,0.4-1.6c0.5-3.3-0.4-6.7-2.7-9.4c-2-2.4-4.8-4-7.9-4.5c-0.6-0.1-1.2-0.1-1.8-0.1
			c-2.8,0-5.6,0.9-8.4,2.8c-0.5,0.3-1,0.7-3.3,2.5c-0.4,0.3-0.8,0.5-1.1,0.8l-0.3,0.2l-0.3,0.2c-2.6,2-3.8,4.3-4.4,6.3
			c-2-2.4-4.8-4-7.9-4.5c-0.4-0.1-1.4-0.2-3.6-0.7c-2.1-0.5-3.7-0.8-4.9-1c-0.8-0.1-2-0.3-3.6-0.5c-1.5-0.2-2.5-0.3-3.3-0.4
			c-0.1,0-0.7-0.1-1.8-0.4c-2.2-0.6-3-0.8-3.5-0.9c-0.8-0.2-1.5-0.2-2.3-0.3c0,0,0,0-0.1,0c-2.9-1.6-6.4-2.7-10.8-3.4
			c-1.6-0.2-3.3-0.4-5.1-0.4l-0.4,0c-0.7,0-1.3,0-2,0c-0.6-0.2-1.2-0.3-1.9-0.4c-0.7-0.1-1.4-0.2-2.1-0.2c-1.9,0-3.7,0.4-5.3,1.2
			c-2.6-1.8-5.5-2.9-8.7-3.4c-1.3-0.2-2.5-0.3-3.5-0.4c-0.7,0-1.3-0.1-1.8-0.1c-0.1,0-0.2,0-0.4,0c-0.3,0-0.6,0-0.9,0
			c-0.9,0-3.6,0.2-6.4,1.9c-2.6-1.2-4.9-2-7.2-2.3c-1.2-0.2-2.3-0.3-3.5-0.3c-2.3,0-4.6,0.4-6.8,1c-1.1-1.5-2.5-2.8-4.3-3.8
			c-2.9-1.6-6.4-2.7-10.9-3.4c-1.6-0.2-3.3-0.4-5.1-0.4l-0.4,0c-0.7,0-1.3,0-2,0c-0.6-0.2-1.2-0.3-1.9-0.4c-0.7-0.1-1.4-0.2-2.1-0.2
			c-6.4,0-11.4,4.4-12.3,11c-0.1,0.9-0.2,2-0.2,3.4c0,0.3,0,0.5,0,0.7c-0.2,1-0.5,3-1.3,6.6c-0.8,3.6-1.3,6.3-1.6,8.2
			c-0.4,2.6-1.6,10.5,3.1,16.1C139.3,55.3,145.1,56.7,149.7,57.3z"/>
		<path class="st0" d="M461.9,273.3c-0.9,0-1.8-0.1-2.7-0.2c-2.5-0.4-5.7-1.5-8.6-4.1c-2.4,1.2-5.1,1.9-7.9,1.9
			c-0.7,0-1.4,0-2.2-0.1c-3.9-0.5-7.4-2.2-10.3-4.9c-2.7,1.6-5.7,2.5-8.9,2.5c-0.7,0-1.5,0-2.2-0.1c-0.3,0-0.5-0.1-0.8-0.1
			c-1.4,0.3-2.8,0.5-4.2,0.5c-0.7,0-1.5,0-2.2-0.1c-2.8-0.3-5.4-1.3-7.7-2.8c-1.4,0.3-2.8,0.5-4.3,0.5c-0.7,0-1.5,0-2.2-0.1
			c-2-0.2-3.8-0.8-5.5-1.6c-1.5,0.4-3.1,0.6-4.7,0.6c-0.7,0-1.5,0-2.2-0.1c-2.4-0.3-4.6-1-6.6-2.2c-0.3,0-0.6,0-0.9-0.1
			c-0.6-0.1-1.6-0.2-2.9-0.3c-1.6-0.2-2.7-0.3-3.5-0.4c-0.1,0-0.6,0-1.5,0l-1.2,0c-2.1,0-3.7-0.1-5.1-0.2c-3.8-0.5-7.2-2.1-9.9-4.6
			c-2.5,1.3-5.3,2-8.1,2c-0.7,0-1.4,0-2.1-0.1c-2.7-0.3-5.2-1.2-7.5-2.7c-2.7,1-5.5,1.5-8.4,1.5c-0.9,0-1.9-0.1-2.8-0.2
			c-5.4-0.7-10-2.4-13.5-5c-3.4,1-7,1.6-10.8,1.6c-1.7,0-3.4-0.1-5.2-0.3c-6.6-0.8-11.9-3.2-16-7.3c-4.7-4.6-6.9-10.6-6.2-16.8
			c0.4-3.5,1.8-6.8,4-9.4c0-1.1,0-2.2,0.2-3.3c0.9-6.9,5.1-12.9,11.7-17c4.7-2.9,9.8-4.3,15.1-4.3c1.1,0,2.3,0.1,3.4,0.2
			c2.5,0.3,5.1,1,7.9,2.2c1.7-0.6,3.5-0.9,5.3-0.9c0.7,0,1.4,0,2,0.1c3.6,0.4,6.9,1.9,9.5,4.2c2.5-1.3,5.2-1.9,8.1-1.9
			c0.7,0,1.5,0,2.2,0.1c0.7,0.1,1.3,0.2,2,0.4c2-0.6,3.8-0.7,4.7-0.7c0.2,0,0.4,0,0.6,0c0.3,0,0.6,0,0.9,0c0.4,0,0.9,0,1.4,0
			c1.2,0.1,2.4,0.2,3.9,0.3c3.6,0.4,7,1.6,10.1,3.4c0.8-0.1,1.5-0.2,2.3-0.2l0.4,0c1.7,0,3.9,0.2,7.1,0.6c3.1,0.4,6.8,1.1,11.2,2.3
			c1,0.3,2,0.6,2.9,1c2.1-0.8,4.2-1.2,6.4-1.2c0.7,0,1.5,0,2.2,0.1c2.5,0.3,4.8,1.1,6.9,2.3c1.8-0.6,3.8-0.9,5.8-0.9
			c0.7,0,1.5,0,2.2,0.1c1.4,0.2,3.7,0.6,6.2,2c2.3-0.7,4.3-0.8,5.2-0.8c0.2,0,0.4,0,0.6,0c0.3,0,0.6,0,0.9,0c0.4,0,0.9,0,1.5,0
			c1.1,0.1,2.4,0.2,3.9,0.3c5.7,0.7,10.8,3.1,15.1,7.2c0.6,0.6,1.2,1.1,1.7,1.8c2.4-1.9,5.2-3.3,8.6-3.7c0-3.8,1.3-7.5,3.6-10.6
			c3.3-4.4,8.4-7,14-7c0,0,0.1,0,0.1,0c0.6,0,1.4,0,3.7,0.1c0.3,0,0.6,0,0.9,0c0,0,0.3,0,0.3,0c0.7-0.1,1.8-0.1,3.2-0.3
			c1.7-0.1,2.9-0.2,3.7-0.3c1.3-0.1,3-0.1,5.3-0.1c2.2,0,3.1-0.1,3.3-0.1c0.4,0,0.8,0,1.3,0c2.1,0,4.2,0.4,6.2,1.1
			c3.5-1.9,7.3-3,11.5-3.2c1-0.1,2-0.1,2.9-0.1c2.7,0,5.2,0.3,7.6,0.9c2-1.4,4.4-2.3,6.8-2.7c0.7-0.2,1.5-0.3,2.3-0.4
			c1.1-0.2,2.3-0.3,3.9-0.4c0.6,0,1.2-0.1,1.9-0.1c2.5,0,5,0.4,7.5,1.1c1.6-0.8,3.3-1.4,5.1-1.7c0.7-0.2,1.5-0.3,2.3-0.4
			c1.1-0.2,2.4-0.3,3.9-0.4c0.6,0,1.2-0.1,1.8-0.1c2.4,0,4.8,0.3,7.1,1c2.2-1.2,4.7-1.9,7.3-2.1c0.4,0,0.8,0,1.2,0
			c0.2,0,0.4,0,0.5,0c0.6-0.2,1.2-0.3,1.9-0.4c2-0.4,3.9-0.7,5.8-0.8c1.2-0.1,2.4-0.1,3.5-0.1c3,0,5.7,0.3,8.2,0.9
			c1.5-0.4,3.1-0.6,4.6-0.6h0.1c4.6,0,5.1,0,5.7,0.1c3.4,0.2,6.6,0.9,9.4,2.1c1.6,0.7,3.1,1.4,4.5,2.2c4.4-3.3,9.5-5.2,15-5.5
			c0.5,0,1.1-0.1,1.7-0.1c2.3,0,4.8,0.3,7.5,1c1,0.2,2.4,0.6,3.9,1.3c4.2-2.9,9.1-4.6,14.3-5c1-0.1,1.9-0.1,2.9-0.1
			c2.7,0,5.3,0.3,7.7,0.9c2.6-1.6,5.5-2.6,8.5-2.8c0.4,0,0.8,0,1.2,0c2.7,0,6.3,0.7,10.1,3.3c2.9-2.6,6.7-4.3,11-4.6
			c0.4,0,0.8,0,1.2,0c15.3,0,18.1,16.3,18.6,23.3c0,0.2,0.1,1.2,0.2,3.2c0.4,6.5,0.6,10.3,0.7,11.8c0.1,1.5,0.1,3.1-0.1,5.4
			c-0.7,9-7.5,15.7-16.5,16.3c-0.4,0-0.8,0-1.2,0c-3.4,0-6.7-1-9.8-2.9c-2.9,3-6.8,4.8-11.1,5.1c-0.4,0-0.9,0-1.3,0
			c-3,0-5.8-0.7-8.3-2c-3.4,1.8-7.1,2.8-11.1,3.1c-0.8,0.1-1.6,0.1-2.4,0.1c-4.4,0-8.5-0.9-12.4-2.6c-0.2,0.1-0.4,0.2-0.6,0.3
			c-4.6,2.5-9.9,4-15.6,4.4c-0.8,0.1-1.6,0.1-2.4,0.1c-2.6,0-5.1-0.3-7.4-0.9c-1.5,0.5-3,0.8-4.5,0.9c-0.4,0-0.8,0-1.2,0
			c-2.4,0-4.7-0.5-6.9-1.4c-2.6,1.7-5.6,2.8-8.7,3c-0.4,0-0.8,0-1.3,0c-0.6,0-1.2,0-1.8-0.1c-1,0.4-2,0.8-3,1.1
			c-1.7,0.4-4.1,0.9-10.6,1.4c-1.3,0.1-2.5,0.1-3.6,0.1c-3.9,0-9.7-0.4-14.7-4.2c-2.9,2.7-6.7,4.4-10.8,4.7c-0.4,0-0.9,0-1.3,0
			c-3.3,0-6.5-0.9-9.3-2.7c-2.8,2.4-6.3,3.8-10.1,4.1c-0.4,0-0.9,0-1.3,0c-2.3,0-4.6-0.5-6.7-1.3c-3.5,1.9-7.4,3.1-11.7,3.4
			c-0.8,0.1-1.6,0.1-2.4,0.1c-5.5,0-10.5-1.3-15-4c-2.9,2.8-6.7,4.6-10.9,4.9c-0.4,0-0.9,0-1.3,0c-2.9,0-5.8-0.7-8.3-2.1
			c0.3,1.8,0.3,3.5,0.1,5.1c-0.6,5-3.2,9.3-7.4,12.2C469.1,272.2,465.6,273.3,461.9,273.3z"/>
		<path class="st1" d="M719.7,218.7c-0.1-1.5-0.3-5.5-0.7-11.8c-0.1-1.9-0.2-3-0.2-3.1c-1.1-15.4-8-18.6-13.6-18.6
			c-0.3,0-0.6,0-0.8,0c-5,0.3-8.8,3-10.7,7c-3.1-3.8-6.7-5.7-10.7-5.7c-0.3,0-0.5,0-0.8,0c-2.9,0.2-5.7,1.4-7.9,3.3
			c-2.6-0.9-5.5-1.4-8.7-1.4c-0.8,0-1.7,0-2.5,0.1c-5.4,0.4-10.2,2.4-14.1,5.9c-2.1-1.3-4.2-2-5.6-2.3c-2.3-0.6-4.4-0.8-6.3-0.8
			c-0.5,0-0.9,0-1.3,0c-5.3,0.4-10.3,2.5-14.4,6.3c-0.2,0.2-0.4,0.3-0.5,0.5c-1.9-1.4-4.1-2.7-6.8-3.9c-2.3-1-4.9-1.6-7.8-1.7
			c-0.4,0-1.1,0-5.3-0.1h-0.1c-1.6,0-3.1,0.3-4.6,0.8c0,0-0.1,0-0.1,0c-2.4-0.7-5.1-1.1-8.2-1.1c-1,0-2.1,0-3.2,0.1
			c-1.6,0.1-3.3,0.4-5.1,0.7c-0.8,0.2-1.6,0.4-2.4,0.6c-0.3,0-0.7,0-1,0c-0.3,0-0.6,0-0.9,0c-2.6,0.2-5.1,1.1-7,2.6
			c-2.5-1-5.1-1.5-7.7-1.5c-0.5,0-1,0-1.5,0.1c-1.4,0.1-2.5,0.2-3.5,0.4c-0.8,0.1-1.5,0.2-2.1,0.4c-2,0.3-3.9,1.1-5.5,2.3
			c-2.6-1.1-5.3-1.6-8-1.6c-0.5,0-1,0-1.5,0.1c-1.4,0.1-2.5,0.2-3.5,0.4c-0.8,0.1-1.5,0.2-2.1,0.4c-2.5,0.4-4.9,1.5-6.7,3.3
			c-2.6-0.9-5.5-1.4-8.7-1.4c-0.8,0-1.7,0-2.5,0.1c-4.3,0.3-8.2,1.6-11.5,3.9c-1.9-1.2-4.1-1.8-6.5-1.8c-0.3,0-0.6,0-0.9,0
			c-0.4,0-1.4,0.1-3.6,0.1c-2.2,0-3.8,0-5,0.1c-0.8,0.1-2,0.2-3.6,0.3c-1.5,0.1-2.6,0.2-3.3,0.3c-0.2,0-0.4,0-0.7,0
			c-0.4,0-0.8,0-1.2,0c-2.2-0.1-3-0.1-3.4-0.1l-0.1,0c-4,0-7.6,1.8-10,5c-1.9,2.5-2.8,5.5-2.5,8.5c0.1,1.8,0.6,3.5,1.4,5
			c-1.1-0.4-2.2-0.8-3.4-0.9l-0.6-0.1h-0.6c-4.3,0-7.4,2.4-11.2,6.5c-1-2.1-2.4-4-4.3-5.8c-3.5-3.3-7.7-5.3-12.3-5.9
			c-1.3-0.2-2.5-0.3-3.5-0.3c-0.4,0-0.8,0-1.2,0c-0.3,0-0.6,0-0.9,0c-0.2,0-0.4,0-0.6,0c-0.8,0-3.2,0.1-5.7,1.5
			c-2.5-2-5.1-2.5-6.3-2.6c-0.5-0.1-1.1-0.1-1.6-0.1c-2.3,0-4.4,0.6-6.3,1.7c-1.9-1.7-4.2-2.8-6.9-3.1c-0.5-0.1-1.1-0.1-1.6-0.1
			c-2.3,0-4.6,0.6-6.6,1.8c-1.2-0.8-2.5-1.4-4-1.8c-4.2-1.1-7.6-1.8-10.5-2.2c-3-0.4-5.1-0.6-6.6-0.6l-0.3,0c-1.1,0-2.3,0.2-3.3,0.4
			c-2.9-2-6.1-3.3-9.6-3.7c-1.3-0.2-2.5-0.3-3.5-0.3c-0.4,0-0.8,0-1.2,0c-0.3,0-0.6,0-0.9,0c-0.2,0-0.4,0-0.6,0
			c-0.7,0-2.5,0.1-4.6,0.9c-0.9-0.3-1.8-0.5-2.7-0.6c-0.5-0.1-1.1-0.1-1.6-0.1c-3.4,0-6.5,1.3-8.9,3.6c-0.4-0.7-1-1.4-1.6-2
			c-2.1-2.2-4.8-3.6-7.8-3.9c-0.5-0.1-1-0.1-1.4-0.1c-1.9,0-3.7,0.5-5.4,1.3c-0.4-0.2-0.7-0.3-1-0.5c-2.7-1.2-5.1-1.9-7.4-2.2
			c-0.9-0.1-1.9-0.2-2.8-0.2c-4.4,0-8.6,1.2-12.5,3.6c-6.8,4.2-8.9,9.6-9.4,13.4c-0.2,1.5-0.2,3,0.1,4.5c-2.4,2.1-3.9,5-4.3,8.2
			c-0.6,4.7,1.1,9.2,4.7,12.7c3.3,3.2,7.7,5.2,13.1,5.9c1.6,0.2,3.1,0.3,4.6,0.3c3.3,0,6.5-0.5,9.5-1.4c0.8-0.3,1.6-0.6,2.4-0.9
			c0.1,0.1,0.2,0.2,0.3,0.3c3,3,7.3,4.8,12.8,5.5c0.7,0.1,1.5,0.1,2.2,0.1c2.8,0,5.7-0.7,8.4-2c0.2-0.1,0.4-0.2,0.7-0.4
			c2,1.9,4.5,3.2,7.3,3.5c0.5,0.1,1,0.1,1.5,0.1c2.9,0,5.6-0.9,7.8-2.7c0.5-0.4,0.9-0.8,1.3-1.2c0.4,0.6,0.8,1.3,1.2,1.9
			c2.1,2.6,5.1,4.2,8.4,4.6c1.2,0.1,2.6,0.2,4.4,0.2l1.2,0c1.5,0,2,0.1,2,0.1c0.8,0.1,1.9,0.2,3.5,0.4c1.3,0.1,2.3,0.2,3,0.3
			c0.5,0.1,1.1,0.1,1.6,0.1c0.1,0,0.1,0,0.2,0c1.7,1.2,3.6,1.9,5.7,2.2c0.5,0.1,1,0.1,1.6,0.1c1.8,0,3.6-0.4,5.2-1.1
			c1.6,1.1,3.5,1.9,5.6,2.1c0.5,0.1,1.1,0.1,1.6,0.1c1.8,0,3.6-0.4,5.3-1.1c1.9,1.9,4.4,3.1,7.3,3.5c0.5,0.1,1.1,0.1,1.6,0.1
			c1.4,0,2.7-0.2,4-0.7c0.5,0.1,1.1,0.2,1.6,0.3c0.5,0.1,1,0.1,1.6,0.1c2.9,0,5.5-0.9,7.8-2.7c0.7-0.6,1.4-1.3,2-2
			c0.5,1.1,1.2,2.2,2.1,3.1c2.1,2.3,4.9,3.7,7.9,4.1c0.5,0.1,1,0.1,1.6,0.1c3.3,0,6.4-1.3,8.8-3.6c2.5,4.1,5.8,5.5,8.4,5.9
			c0.7,0.1,1.3,0.2,2,0.2c2.6,0,5.1-0.8,7.2-2.3c3-2.1,4.8-5.2,5.2-8.7c0.2-1.9,0-4-0.7-6.5c-0.2-0.7-0.3-1.2-0.4-1.4
			c-0.5-4.5-0.9-8.6-1.2-12c-0.2-2.7-0.4-4.7-0.4-6l0-0.4l-0.1-0.4c-0.3-1.7-0.8-3.3-1.6-4.7c0.9,0.4,2,0.7,3,0.9
			c0.3,0,0.5,0.1,0.8,0.1c0.3,2.3,0.5,3.7,0.5,4.5c0.1,0.9,0.2,1.9,0.4,3.3c0.1,0.7,0.2,1.2,0.2,1.5c-0.1,0.8-0.1,1.5,0,2.1
			c0.3,3.7,2.1,7,5.2,9.2c2.2,1.6,4.8,2.4,7.5,2.4c0.3,0,0.6,0,0.9,0c4.4-0.3,8.1-2.8,10.2-6.8c0.6,0.5,1.2,1,1.8,1.4
			c4.2,2.9,8.9,4.4,14.2,4.4c0.7,0,1.3,0,2-0.1c4.4-0.3,8.4-1.7,11.8-4.2c2,1.4,4.4,2.1,6.9,2.1c0.3,0,0.6,0,0.9,0
			c3.4-0.2,6.5-1.8,8.7-4.4c0.5-0.6,0.9-1.2,1.3-1.8c0.5,0.6,1,1.2,1.6,1.7c2.3,2,5.2,3.1,8.2,3.1c0.3,0,0.6,0,0.9,0
			c3.4-0.2,6.5-1.8,8.7-4.4c0.8-1,1.5-2.1,2-3.2c0.9,1.4,2,2.7,3.4,3.8c3.8,2.9,8.5,3.3,11.8,3.3c1,0,2.1,0,3.2-0.1
			c6.1-0.4,8.3-0.9,9.7-1.2c1.2-0.3,2.4-0.8,3.4-1.4c0.8,0.2,1.7,0.3,2.6,0.3c0.3,0,0.6,0,0.9,0c3.3-0.2,6.3-1.7,8.5-4.1
			c2.2,1.6,4.8,2.5,7.5,2.5c0.3,0,0.6,0,0.9,0c1.6-0.1,3.2-0.5,4.6-1.2c2.3,0.8,4.9,1.2,7.6,1.2c0.7,0,1.4,0,2.1-0.1
			c5-0.4,9.6-1.6,13.6-3.8c1-0.5,1.9-1.1,2.7-1.7c3.8,2.2,8,3.4,12.6,3.4c0.7,0,1.3,0,2-0.1c4.3-0.3,8.2-1.7,11.6-4
			c2.3,1.9,5.1,2.9,8.2,2.9c0.3,0,0.7,0,1,0c4.5-0.3,8.3-3,10.3-7.2c0.6,0.5,1.3,1,1.9,1.5c2.9,2.3,5.9,3.4,9.1,3.4
			c0.3,0,0.6,0,0.9,0c6.5-0.5,11.3-5.2,11.9-11.8C719.8,221.3,719.8,219.9,719.7,218.7z"/>
		<path class="st0" d="M269.1,184.8c-2,0-4.4,0-7.1-0.1c-11.7-0.3-19.2-2.6-24.4-7.5c-0.3-0.3-0.7-0.6-1-1
			c-6.1,3.1-12.4,4.7-18.8,4.7c-0.4,0-0.7,0-1.1,0c-8.7-0.2-16.4-3.6-22.5-9.7c-7.2,6.3-15.9,9.6-25.6,9.6c-0.4,0-0.8,0-1.2,0
			c-10.3-0.3-19.3-3.6-26.6-10c-2.2-1.9-4.2-4-5.8-6.3c-0.9,1.9-1.9,3.7-3,5.5c-3.7,6.3-10,9.9-17.1,9.9c-0.2,0-0.4,0-0.6,0
			c-8.4-0.2-15.5-5.3-18.5-13.1c-2.9-7.4-5.8-17.5-9.1-30.8c-0.8-3-1.7-6-2.5-9.1l0-0.2c-1.6-5.8-2.2-9.8-2.2-13
			c-1.1,0.4-2.2,0.8-3.4,1.1c-2.8,0.8-5.6,1.1-8.3,1.1c-3,0-5.9-0.5-8.7-1.3c-2.3,4.1-6.2,7.2-11,8.5c-1.6,0.4-3.2,0.7-4.9,0.7
			c-1.2,0-2.4-0.1-3.6-0.4c-1.8,1.3-3.8,2.3-6,2.9c-1.7,0.5-3.4,0.7-5.1,0.7c-2.4,0-4.8-0.5-7-1.4c-4.2-1.8-7.5-5-9.3-9.1l-0.8-1.4
			l-0.2-0.3c-0.8-1.6-2.2-4.1-4-7.4c-1.4-2.4-3.7-5.8-6.7-10.2C2,95.8,1.2,94,0.6,92c-1.4-5.2-0.4-10.7,2.9-15
			c2.4-3.2,5.7-5.4,9.7-6.5c1.5-0.4,3.1-0.6,4.7-0.6c1.5,0,3.1,0.2,4.5,0.6c2-1.8,4.3-3.1,7-3.8c1.5-0.4,3.1-0.6,4.7-0.6
			c1.1,0,2.2,0.1,3.3,0.3c2.2-2.1,4.9-3.7,7.9-4.5c1.6-0.4,3.2-0.6,4.7-0.6c1.5,0,3,0.2,4.5,0.6c3-2.3,6.4-4,10.2-5
			c3.2-0.9,6.3-1.3,9.3-1.3c0.4,0,0.8,0,1.2,0c2-1.7,4.4-2.9,7-3.7c1.6-0.4,3.1-0.6,4.7-0.6c1.5,0,3.1,0.2,4.5,0.6
			c2-1.8,4.3-3.1,7-3.8c1.5-0.4,3.1-0.6,4.7-0.6c1.1,0,2.2,0.1,3.3,0.3c2.2-2.1,4.9-3.7,7.9-4.5c1.6-0.4,3.2-0.6,4.8-0.6
			c2.9,0,5.7,0.7,8.2,2.1c4.3,2.3,7.4,6.1,8.7,10.9c0.7,2.7,0.7,5,0.3,7.8l0,0.2c0,0.3-0.1,0.7-0.1,1.1c0,0.8-0.1,1.9-0.2,3.3l0,0.4
			l0,0.4c-0.2,2.2-0.7,5.3-1.3,9.4c-0.6,3.7-1,6.4-1.1,8.1c-0.2,2.2-0.6,4-1,5.6c-0.3,1.3-0.8,2.6-1.4,3.8c1.5-0.4,3.1-0.6,4.7-0.6
			c0.2,0,0.4,0,0.6,0c5.1,0.1,9.8,2.1,13.5,5.7c0.6,0.5,1.1,1.1,1.5,1.7c6.2-3.8,13.2-5.7,20.5-5.7c0.4,0,0.8,0,1.2,0
			c11.9,0.3,21.2,3.8,27.9,10.2c0.8,0.8,1.6,1.7,2.4,2.6c7.6-7,15.8-10.5,24.4-10.5c0.3,0,0.6,0,0.9,0c0.6,0,1.3,0,1.9,0.1
			c2-0.6,4-0.9,6.1-0.9c0.1,0,0.3,0,0.4,0c0.9-4.3,3.3-8.1,7.1-10.9c0.1-0.1,1.6-1.3,9.8-8.6c3.7-3.3,8.2-5,13-5c0.2,0,0.4,0,0.5,0
			c4.8,0.1,9.4,1.9,13.8,5.3c1,0.7,2.2,1.8,5.3,4.8c1.2,1.2,3,3,5.5,5.4l0.2,0.2c3.6,3.8,5.6,8.6,5.4,13.5c0,1.4-0.2,2.7-0.6,4
			c2.2,3.3,3.3,7.3,3.2,11.5c-0.1,4.6-1.8,8.8-4.8,12.3c1.2,2.7,1.8,5.6,1.7,8.7c-0.1,5.2-2.1,9.8-5.4,13.2c2.8,3.5,4.3,8,4.2,12.8
			c-0.3,9.8-7,17.4-16.8,18.9C276.8,184.7,273.6,184.8,269.1,184.8z"/>
		<path class="st1" d="M291,165.2c0.1-4.6-1.7-8.7-5.1-11.5c-0.7-0.6-1.4-1.1-2.1-1.5c5-2.2,8.3-7,8.4-12.9c0.1-3.5-1-6.8-3.1-9.5
			c0.7-0.5,1.5-1.2,2.1-1.9c2.5-2.7,3.9-6,4-9.7c0.1-4-1.3-7.7-3.8-10.4c0.7-1.6,1.1-3.3,1.2-5.1c0.1-3.6-1.3-7.1-4-9.9l-0.1-0.1
			c-2.4-2.4-4.2-4.2-5.4-5.3c-3.1-3-4.2-3.9-4.9-4.5c-3.6-2.8-7.2-4.2-10.9-4.3c-0.1,0-0.3,0-0.4,0c-3.6,0-6.9,1.3-9.7,3.7
			c-7.7,6.9-9.6,8.5-10.1,8.8c-3.4,2.6-5.4,6.3-5.5,10.3c0,0.9,0.1,1.7,0.2,2.5c-1.5-0.6-3.1-0.9-4.8-0.9c-0.1,0-0.3,0-0.4,0
			c-1.9,0-3.7,0.3-5.4,1c-0.8-0.1-1.7-0.1-2.7-0.1c-0.2,0-0.5,0-0.7,0c-8.8,0-17.1,4.4-24.9,13.1c-0.1,0.1-0.2,0.2-0.3,0.3
			c-1.3-2.6-3-4.9-5.1-6.9c-5.7-5.6-14-8.5-24.6-8.8c-0.4,0-0.7,0-1.1,0c-8.2,0-15.7,2.7-22.1,8c-0.7-2-1.9-3.8-3.5-5.3
			c-2.8-2.7-6.3-4.2-10.1-4.3c-0.1,0-0.3,0-0.4,0c-4.1,0-8,1.7-10.9,4.8c-2.4,2.6-4.5,5.9-6.4,10.2l-0.1,0.2c0,0-0.4,1.1-0.6,1.5
			c-0.4-1.9-1.3-6.3-1.3-6.3l-0.2-0.7c-1.5-4.2-4.2-7.3-7.8-8.9c0.6-0.4,1.1-0.9,1.6-1.4c0.2,0.1,0.3,0.1,0.5,0.2
			c1.4,0.5,2.9,0.7,4.3,0.7c1.2,0,2.4-0.2,3.6-0.5c4.6-1.3,8.1-4.8,9.3-9.4c0.4-1.4,0.6-3,0.8-4.9c0.2-1.7,0.6-4.5,1.2-8.3
			c0.6-4,1-7,1.2-9.2l0-0.2l0-0.2c0.1-1.4,0.1-2.5,0.2-3.3c0.1-0.5,0.1-1,0.2-1.4l0-0.1c0.3-2.3,0.3-4-0.2-5.9
			c-0.9-3.4-3.1-6.2-6.2-7.8c-1.8-1-3.9-1.5-5.9-1.5c-1.1,0-2.3,0.2-3.5,0.5c-3.1,0.9-5.7,2.8-7.4,5.5c-1.6-0.7-3.3-1.1-5.1-1.1
			c-1.1,0-2.3,0.2-3.4,0.5c-2.2,0.6-4.8,1.9-6.8,4.9c-1.8-1-3.8-1.5-5.9-1.5c-1.1,0-2.3,0.2-3.4,0.5c-2.6,0.7-4.8,2.1-6.4,4
			c-1-0.1-2-0.2-3-0.2c-2.5,0-5.2,0.4-7.9,1.1c-4.1,1.1-7.6,3.1-10.4,5.9c-1.7-0.9-3.6-1.3-5.6-1.3c-1.1,0-2.3,0.2-3.4,0.5
			c-3.1,0.8-5.7,2.8-7.5,5.5c-1.6-0.7-3.3-1.1-5.1-1.1c-1.1,0-2.3,0.2-3.4,0.5c-2.2,0.6-4.8,1.9-6.8,4.9c-1.8-1-3.8-1.5-5.9-1.5
			c-1.1,0-2.3,0.2-3.4,0.5c-2.8,0.8-5.3,2.4-7,4.7c-2.3,3-3.1,6.9-2.1,10.6c0.4,1.4,1,2.8,1.8,3.9c3.1,4.5,5.5,8.1,6.9,10.5
			c1.8,3.3,3.2,5.9,4.1,7.6l0.1,0.2l0.9,1.5c1.3,3,3.6,5.4,6.8,6.7c1.6,0.7,3.3,1,5.1,1c1.2,0,2.5-0.2,3.8-0.5
			c2.3-0.6,4.4-1.9,6.1-3.6c0.2,0.1,0.3,0.1,0.5,0.2c1.4,0.5,2.9,0.7,4.3,0.7c1.2,0,2.4-0.2,3.6-0.5c4.6-1.3,8.1-4.8,9.3-9.4
			c0.1-0.3,0.2-0.6,0.2-1c0.6,0.3,1.2,0.6,1.8,0.9c3.1,1.4,6.4,2.1,9.8,2.1c2.3,0,4.6-0.3,7-1c5.9-1.6,10.6-5.1,13.7-10.2
			c0.8,0.7,1.6,1.4,2.6,1.9c-0.4,0.3-0.9,0.6-1.3,0.9l-0.1,0.1c-3.2,2.7-5.1,6.5-5.2,10.7c-0.1,2.8,0.5,6.4,2,11.9l0,0.1
			c0.9,3.1,1.7,6.1,2.5,9.2c3.2,13.2,6.1,23.1,8.9,30.3c2.3,6,7.5,9.7,14,9.9c0.1,0,0.3,0,0.4,0c5.4,0,10-2.7,12.8-7.5
			c1.8-3.1,3.4-6.3,4.7-9.5c0.8-1.9,1.5-3.7,2.2-5.4c1.6,5.5,4.8,10.3,9.4,14.3c6.4,5.6,14.3,8.5,23.5,8.8c0.4,0,0.7,0,1.1,0
			c10.1,0,19-4.2,25.9-12c0.7,0.9,1.4,1.9,2.2,2.7c5.3,5.9,12.2,9.1,20.1,9.3c0.3,0,0.6,0,0.9,0c6.9,0,13.6-2.1,20.2-6.2
			c0.8,1.4,1.8,2.7,3,3.9c4.2,4,10.7,5.9,21.1,6.1c2.6,0.1,4.9,0.1,6.9,0.1c4.2,0,7.2-0.2,9.2-0.5
			C285.8,178.2,290.7,172.6,291,165.2z"/>
		<path class="st0" d="M642.8,194.1c-5.8-0.2-11-2.9-14.9-7.7c-1.1,0.8-2.2,1.6-3.4,2.3c-5.2,3.1-10.7,4.7-16.3,4.7
			c-0.3,0-0.6,0-0.8,0c-9.4-0.3-16.6-2.6-22.1-7.1c-1.7-1.4-3.3-3-4.8-4.8c-7.3,6.6-16.1,10-26,10c-0.4,0-0.8,0-1.2,0
			c-8.1-0.2-15.4-2.4-21.7-6.4c-3.6,3.1-8.1,4.8-12.9,4.8c-0.2,0-0.4,0-0.6,0c-5-0.1-9.6-2-13.2-5.4c-2.5-2.3-4.3-5-5.3-8.1
			c-1.1,2.9-2.9,5.5-5.4,7.6c-3.6,3.1-8.1,4.8-13,4.8c-0.2,0-0.4,0-0.6,0c-3-0.1-5.9-0.8-8.5-2.1c-2.5,1-5.2,1.6-7.9,1.6
			c-0.2,0-0.4,0-0.6,0c-5.4-0.2-10.5-2.5-15.3-7c-2-1.9-4.1-4-6.3-6.3c-0.3,1-0.8,1.9-1.2,2.8c-3.4,6.7-9.8,10.7-17.1,10.7
			c-0.2,0-0.4,0-0.5,0c-3.8-0.1-7.4-1.1-10.4-3c-1.9,0.6-3.9,0.9-5.9,0.9c-0.4,0-0.9,0-1.3,0c-6.9-0.5-12.4-4.4-16.3-11.8
			c-0.1,0.2-0.5,1-0.5,1l-0.3,0.5c-3.8,5.8-9.9,9.2-16.7,9.2c-0.2,0-0.4,0-0.6,0c-4.9-0.1-9.4-1.9-13-5.2c-0.1-0.1-0.3-0.3-0.4-0.4
			c-6.5,4.1-13.8,6.2-21.7,6.2c-0.4,0-0.8,0-1.2,0c-10.4-0.3-18.6-3.7-24.4-10.2c-5.6-6.3-8.3-14.7-8-25.1
			c0.2-8.1,2.4-16.2,6.4-24.3c4-8,9.3-14.7,15.6-19.7c5.9-4.7,12.4-7,19.3-7c0.3,0,0.6,0,0.8,0c4.3,0.1,9,1.4,14.8,4
			c12.1,5.5,15.2,13.1,15.5,19c8.8-12.5,14-18.3,22.7-18.3l0.4,0c4.7,0.1,8.9,1.8,12.3,4.6c0.4-0.4,0.8-0.8,1.3-1.2
			c3.9-3.4,8.7-5.2,13.7-5.2c0.2,0,0.4,0,0.6,0c4.7,0.1,11.6,2.2,17.6,11.3c1,1.5,2,3,3,4.4c2.3-8.5,9.7-14.2,19.1-14.2
			c0.2,0,0.5,0,0.7,0c3.1,0.1,5.9,0.9,8.5,2.3c2.8-1.5,6-2.3,9.4-2.3c0.2,0,0.4,0,0.6,0c5.2,0.1,10.1,2.2,13.6,5.9
			c2.2,2.3,3.8,5.1,4.7,8c0-0.1,0.1-0.2,0.1-0.3c5.6-11.5,14.4-12.7,18-12.7l0.4,0c4.9,0.1,9.3,1.9,12.9,5.2c1,0.9,1.8,1.9,2.6,2.9
			c6.2-3.8,13.2-5.7,20.5-5.7c0.4,0,0.8,0,1.2,0c8.8,0.2,16.2,2.2,22.2,5.9c4.4-3.5,9.2-4,11.4-4l0.4,0c4.8,0.1,9.3,1.9,12.8,5
			c2.2,1.9,3.9,4.2,5.1,6.8c0.4-0.7,0.7-1.3,1.2-1.9l0.1-0.1c3.9-5.6,9.8-8.7,16.6-8.7c0.2,0,0.4,0,0.6,0c1.2,0,2.5,0.2,3.7,0.4
			c3.4-2.7,7.5-4.1,12-4.1c0.2,0,0.4,0,0.6,0c5.2,0.1,9.8,2.1,13.4,5.8c3.7,3.8,5.7,8.7,5.5,14l-1,36.6c-0.1,2.2-0.5,4.2-1.2,6.2
			c0.6,2.1,0.9,4.2,0.9,6.3c-0.2,5.5-2.6,10.5-6.8,14c-3.6,3.1-8,4.7-12.7,4.7C643.2,194.1,643,194.1,642.8,194.1z"/>
		<path class="st1" d="M397.8,109.1l-0.3,0c-6.2,0-10.2,4.3-19.1,17c-2.4,3.4-4.7,6.8-6.9,10.1c-0.4-0.6-0.9-1.1-1.4-1.6
			c-1-1-2.1-1.9-3.3-2.5c1.9-2.5,2.9-5.3,3-8.5c0.2-6.6-4-11.8-12.5-15.7c-5.1-2.3-9.2-3.4-12.9-3.5c-0.2,0-0.5,0-0.7,0
			c-5.8,0-11.3,2-16.2,5.9c-5.8,4.6-10.6,10.7-14.3,18c-3.7,7.4-5.7,14.9-5.9,22.2c-0.2,9.1,2,16.3,6.7,21.6
			c4.9,5.4,11.8,8.3,20.8,8.5c0.4,0,0.7,0,1.1,0c8.4,0,16-2.7,22.6-8c0,0,0,0,0.1-0.1c0.7,1.3,1.7,2.5,2.9,3.5
			c2.8,2.5,6.1,3.9,9.8,4c0.1,0,0.3,0,0.4,0c5.1,0,9.6-2.5,12.5-6.9l0.2-0.3l0.2-0.3c1.4-2.5,2.6-4.7,3.6-6.6c0.7,0,1.4-0.1,2.2-0.1
			c0.2,0,0.4,0,0.6,0c0.3,1,0.7,1.9,1.1,2.8c1.2,3.1,5,12.2,13.9,12.7c0.3,0,0.6,0,1,0c2.3,0,4.5-0.5,6.6-1.6
			c2.7,2.3,6.1,3.6,9.9,3.7c0.1,0,0.3,0,0.4,0c5.4,0,10.1-3,12.6-8c1.5-3,2.3-6.8,2.5-11.5c4.5,5.2,8.8,9.8,12.9,13.7
			c3.8,3.6,7.8,5.5,12,5.6c0.2,0,0.3,0,0.5,0c3.1,0,5.8-0.8,8.1-2.3c2.4,1.8,5.3,2.8,8.4,2.8c0.2,0,0.3,0,0.4,0c3.7,0,7-1.2,9.7-3.6
			c3-2.6,4.8-6.3,4.9-10.3c0-1.6,0.2-3.7,0.5-6.2c1.9-0.3,3.7-0.6,5.6-0.9c0.6-0.1,1.2-0.2,1.7-0.3c0,0.1,0,0.2,0,0.3
			c0.1,3.2,0.1,5.6,0,7.1c-0.1,4.1,1.5,8,4.6,10.8c2.7,2.5,6.2,3.9,10,4c0.1,0,0.3,0,0.4,0c3.8,0,7.3-1.3,10-3.9
			c0.8-0.8,1.6-1.7,2.2-2.6c6.3,5.1,13.9,7.8,22.6,8c0.4,0,0.7,0,1.1,0c10.5,0,19.7-4.5,26.7-12.9c1.9,3.5,4.3,6.4,7.3,8.9
			c4.6,3.8,10.8,5.7,19,5.9c0.2,0,0.5,0,0.7,0c4.7,0,9.3-1.3,13.7-4c2.6-1.6,5-3.5,7.1-5.8c0.6,1.4,1.4,2.9,2.5,4.3
			c3,3.9,7.1,6.1,11.5,6.2c0.1,0,0.3,0,0.4,0c3.5,0,6.8-1.2,9.5-3.5c3.1-2.6,4.9-6.3,5-10.3c0.1-2.1-0.4-4.2-1.3-6.3
			c1-1.9,1.5-4,1.6-6.2l1-36.6c0.1-3.9-1.3-7.6-4.1-10.4c-2.7-2.7-6.1-4.2-10-4.3c-0.1,0-0.3,0-0.4,0c-3.7,0-7.1,1.3-9.8,3.7
			c-0.3,0.3-0.6,0.6-0.9,0.9c-1.6-0.6-3.3-1-5.1-1c-0.2,0-0.3,0-0.5,0c-5.1,0-9.6,2.3-12.5,6.6l-0.1,0.1c-1.9,2.8-2.8,5.8-2.9,9
			c-0.2,9-0.9,16-2,20.7c-1.1,4.9-2.4,6.8-2.9,7.4c-0.3,0-0.6,0-0.9-0.1c-0.1-0.3-0.2-0.8-0.4-1.3c-0.5-2.1-0.8-4.5-0.7-7.1
			c0-0.6,0.1-1.9,0.3-4.4c0.2-2.4,0.3-4.2,0.3-5.4c0-1.3,0.1-3.2,0.2-5.7c0.1-2.7,0.2-4.6,0.2-5.9c0.1-4.4-1.6-8.3-4.9-11.2
			c-2.7-2.4-6-3.7-9.6-3.8l-0.4,0c-2.2,0-7.1,0.6-10.8,5.5c-5.6-4.6-13.3-7.1-22.9-7.4c-0.4,0-0.7,0-1.1,0c-8.3,0-15.9,2.8-22.4,8.2
			c-0.7-2.5-2.1-4.8-4.2-6.6c-2.7-2.4-6-3.8-9.6-3.9l-0.4,0c-3.2,0-9.3,1.3-13.4,9.8c-1.7,3.5-2.6,6.8-2.8,9.9
			c-0.1,1.4-0.2,2.6-0.2,3.7c-1.8,0.2-3.6,0.4-5.6,0.7l-0.9,0.1c0-0.7,0.1-1.4,0.1-2.2c0.2-3.7,0.4-6.4,0.4-8.2
			c0.1-3.9-1.3-7.7-4.1-10.5c-2.7-2.7-6.3-4.3-10.2-4.4c-0.2,0-0.3,0-0.4,0c-3.6,0-6.8,1.2-9.5,3.4c-2-1.9-4.8-3.3-8.5-3.4
			c-0.2,0-0.4,0-0.6,0c-8.5,0-14.6,5.9-14.9,14.3c0,1.4,0.1,3.1,0.3,5.2c0.2,2.1,0.3,2.8,0.3,3c0,0.5,0,1.2,0,1.9
			c-4-5.2-8-10.8-12-16.9c-3.9-5.9-8.5-8.9-13.6-9c-0.2,0-0.3,0-0.5,0c-3.8,0-7.5,1.4-10.5,3.9c-1.9,1.6-3.3,3.6-4.2,5.7
			C407.9,112.2,403.3,109.2,397.8,109.1z"/>
	</g>
	<g>
		<path class="st0" d="M52.3,80.2c-0.1,0.6-0.1,1.2-0.2,2c0,0.8-0.1,1.9-0.2,3.4c-0.2,2-0.6,4.9-1.2,8.7c-0.6,3.9-1,6.8-1.2,8.7
			c-0.2,1.4-0.3,2.6-0.6,3.5c-0.3,1.2-1,1.9-2.2,2.2c-0.7,0.2-1.4,0.2-2-0.1c-0.8-0.3-1.3-0.7-1.5-1.5c-0.9-1.3-1.6-2.3-2-3.2
			c-1.2-2.5-3.1-6.2-5.4-11.2c-0.1,2.7-0.4,5.1-0.8,7.3c-0.6,3.3-0.8,5.8-0.8,7.6c0.2,0.2,0.3,0.5,0.4,0.8c0.2,0.8,0,1.5-0.5,2.1
			c-0.5,0.6-1.1,0.9-1.8,1.1c-0.9,0.2-1.7,0.2-2.4-0.1c-0.8-0.3-1.3-0.9-1.5-1.8l-1.1-2c-0.9-1.8-2.3-4.5-4.3-8
			c-1.6-2.7-4.1-6.4-7.4-11.3c-0.2-0.3-0.3-0.6-0.4-0.9c-0.2-0.7-0.1-1.4,0.4-2c0.4-0.5,0.9-0.9,1.7-1.1c0.9-0.3,1.8-0.1,2.5,0.6
			c0.4,0.3,1,1,1.7,2c2.1,3.1,4.8,7.8,8.1,14c0.3-2.6,0.6-5.7,0.7-9.2c0.1-2.9,0.3-4.9,0.5-6.2c0.5-3,1.4-4.7,2.7-5
			c1.2-0.3,2.2,0.1,3.1,1.2c0.4,0.6,1,1.6,1.7,3.2c0.2,0.5,0.7,1.7,1.5,3.6c0.8,2,2.6,5.6,5.4,10.8c0.5-3.4,1-8.2,1.7-14.5
			c0-0.4,0.1-1.6,0-3.6c0-1.5,0.1-2.7,0.5-3.6c0.4-1,1-1.7,2-1.9c0.7-0.2,1.4-0.1,2,0.2c0.6,0.3,1,0.8,1.2,1.6
			C52.5,78.3,52.5,79,52.3,80.2z"/>
		<path class="st0" d="M74.8,100.5c-3.6,1-7,0.8-10.1-0.6c-3.3-1.5-5.4-4-6.4-7.5c-1.1-4.2-0.9-8.3,0.8-12.4c1.9-4.6,5-7.6,9.5-8.8
			c4.3-1.2,7.7-1,10.4,0.3c2.7,1.4,4.5,4,5.6,7.9c1.1,4.2,0.9,8.2-0.5,12.3C82.3,96.4,79.3,99.3,74.8,100.5z M70,76.2
			c-2.7,0.7-4.7,2.7-5.9,5.9c-1.2,3-1.3,5.9-0.5,8.9c0.5,2,1.8,3.5,3.7,4.3c1.8,0.8,3.9,0.9,6.2,0.3c2.7-0.7,4.6-2.7,5.6-5.8
			c1-2.9,1.1-5.8,0.2-8.9c-0.7-2.6-1.8-4.2-3.2-4.9C74.8,75.4,72.8,75.5,70,76.2z"/>
		<path class="st0" d="M121.3,61.5c-0.1,0.6-0.1,1.2-0.2,2c0,0.8-0.1,1.9-0.2,3.4c-0.2,2-0.6,4.9-1.2,8.7c-0.6,3.9-1,6.8-1.2,8.7
			c-0.2,1.4-0.3,2.6-0.6,3.5c-0.3,1.2-1,1.9-2.2,2.2c-0.7,0.2-1.4,0.2-2-0.1c-0.8-0.3-1.3-0.7-1.5-1.5c-0.9-1.3-1.6-2.3-2-3.2
			c-1.2-2.5-3.1-6.2-5.4-11.2c-0.1,2.7-0.4,5.1-0.8,7.3c-0.6,3.3-0.8,5.8-0.8,7.6c0.2,0.2,0.3,0.5,0.4,0.8c0.2,0.8,0,1.5-0.5,2.1
			c-0.5,0.6-1.1,0.9-1.8,1.1c-0.9,0.2-1.7,0.2-2.4-0.1c-0.8-0.3-1.3-0.9-1.5-1.8l-1.1-2c-0.9-1.8-2.3-4.5-4.3-8
			c-1.6-2.7-4.1-6.4-7.4-11.3c-0.2-0.3-0.3-0.6-0.4-0.9c-0.2-0.7-0.1-1.4,0.4-2c0.4-0.5,0.9-0.9,1.7-1.1c0.9-0.3,1.8-0.1,2.5,0.6
			c0.4,0.3,1,1,1.7,2c2.1,3.1,4.8,7.8,8.1,14c0.3-2.6,0.6-5.7,0.7-9.2c0.1-2.9,0.3-4.9,0.5-6.2c0.5-3,1.4-4.7,2.7-5
			c1.2-0.3,2.2,0.1,3.2,1.2c0.4,0.5,1,1.6,1.7,3.2c0.2,0.5,0.7,1.7,1.5,3.6c0.8,2,2.6,5.6,5.4,10.8c0.5-3.4,1-8.2,1.7-14.5
			c0-0.4,0.1-1.6,0-3.6c0-1.5,0.1-2.7,0.5-3.6c0.4-1,1-1.7,2-1.9c0.7-0.2,1.4-0.1,2,0.2s1,0.8,1.2,1.6
			C121.4,59.6,121.4,60.4,121.3,61.5z"/>
	</g>
	<g>
		<path class="st0" d="M164,22.9c-0.3,0-0.5-0.1-0.8-0.2c-1.9-0.9-3.9-1.4-5.8-1.7c-0.9-0.1-2-0.2-3.1-0.2c-1.1,0-2.3,0-3.5,0.2
			c-0.2,1.7-0.7,4.1-1.3,7.4c0.7,0.1,3.2,0.2,7.4,0.4c2.4,0.1,4,0.2,4.6,0.3c0.7,0.1,1.3,0.4,1.8,1c0.5,0.5,0.6,1.2,0.5,2
			c-0.2,1.5-1.1,2.2-2.8,2.2c-1-0.1-2.5-0.2-4.5-0.3c-1.8-0.1-4.5-0.2-8.1-0.5c-0.3,1.6-0.6,2.9-0.7,3.8c-0.4,2.5-0.4,3.9-0.2,4.2
			c0.1,0.2,0.9,0.4,2.3,0.6c0.8,0.1,1.9,0.3,3.5,0.5c1.6,0.2,2.7,0.4,3.5,0.5c0.2,0,0.6,0.1,1.1,0.1c0.5,0,0.9,0,1.1,0
			c0.7,0.1,1.3,0.4,1.8,0.9c0.5,0.6,0.7,1.2,0.6,2.1c-0.2,1.4-1.1,2.1-2.6,2.2c-1.3,0.1-3.9-0.2-7.8-0.8c-4.1-0.6-6.7-1.6-7.7-2.8
			c-1.2-1.4-1.5-4.1-0.9-8.2c0.2-1.7,0.7-4.2,1.5-7.5c0.7-3.3,1.2-5.8,1.5-7.5c0.1-0.4,0.1-1.1,0.1-2c0-0.9,0-1.5,0.1-2
			c0.3-1.9,1.3-2.7,3.1-2.5c0.5,0.1,1,0.3,1.5,0.7c1.5-0.1,2.9-0.2,4.3-0.2c1.3,0,2.6,0.1,3.7,0.3c3.2,0.5,5.6,1.2,7.4,2.2
			c1.1,0.6,1.5,1.5,1.4,2.6c-0.1,0.7-0.4,1.2-0.9,1.6C165.5,22.8,164.8,23,164,22.9z"/>
		<path class="st0" d="M174.2,50.2c-3.2-0.5-5.6-1.6-7.2-3.2c-1.4-1.4-1.9-2.9-1.7-4.4c0.1-0.8,0.5-1.4,1-1.9
			c0.6-0.4,1.2-0.6,2.1-0.5c1.1,0.2,1.9,0.9,2.2,2.1c0.5,1.6,2,2.7,4.5,3c2.2,0.3,4.3,0.2,6.5-0.5c2.2-0.7,3.4-1.6,3.6-2.7
			c0.2-1.6-0.3-2.7-1.5-3.4c-0.9-0.5-2.7-1-5.5-1.5c-2.2-0.4-4-1.1-5.6-2.1c-2.2-1.4-3.1-3-2.7-5c0.4-2.4,2-4.5,4.9-6.1
			c2.9-1.7,5.8-2.2,8.9-1.8c1.2,0.2,2.7,0.7,4.4,1.5c2.1,1,3.1,2,3,2.9c-0.1,0.7-0.4,1.2-0.9,1.6c-0.6,0.5-1.3,0.7-2.1,0.6
			c-0.6-0.1-1.4-0.3-2.6-0.8c-1.1-0.4-2-0.7-2.6-0.8c-1.6-0.2-3.2-0.1-4.8,0.5c-1.6,0.6-2.5,1.3-2.6,2.2c-0.1,0.5,0.1,0.9,0.5,1.3
			c0.4,0.4,1.1,0.7,2,1c1.6,0.3,3.2,0.7,4.7,1c2.7,0.6,4.8,1.7,6.2,3.3c1.6,1.8,2.1,4,1.7,6.6c-0.5,3.2-2.7,5.4-6.6,6.5
			C181.1,50.5,177.8,50.7,174.2,50.2z"/>
		<path class="st0" d="M199.6,42.1c-0.2,0-0.7-0.2-1.6-0.4c-0.3,1.7-0.8,4.6-1.4,8.6c-0.1,0.7-0.4,1.2-0.9,1.6s-1.2,0.6-1.9,0.5
			c-0.7-0.1-1.3-0.4-1.7-1s-0.5-1.1-0.4-1.8l0.8-5.2c0.3-1.9,0.8-4.8,1.7-8.6c0.8-3.8,1.4-6.7,1.7-8.6c0.5-3.3,1.6-4.7,3.4-4.3
			c0.4,0,1,0,1.8,0c0.8,0.1,1.7,0.2,2.8,0.3c2.5,0.4,4.6,1.5,6.6,3.4c2.1,2.1,3,4.5,2.6,7c-0.5,3.2-2.1,5.6-4.9,7.1
			C205.5,42.1,202.7,42.5,199.6,42.1z M202.7,28c-0.4-0.1-0.8-0.1-1.1-0.1c-0.3,0-0.6-0.1-0.8-0.1c-0.1,0.6-0.2,1.5-0.4,2.6
			c-0.2,1.4-0.7,3.5-1.3,6.4c0.6,0.2,1,0.3,1.3,0.3c2,0.3,3.6,0.1,5.1-0.7c1.5-0.8,2.4-2,2.6-3.6c0.2-1.1-0.3-2.1-1.5-3.1
			C205.4,28.9,204.1,28.3,202.7,28z"/>
		<path class="st0" d="M235.2,33.5c-0.3,0-0.5-0.1-0.8-0.2c-1.9-0.9-3.9-1.4-5.8-1.7c-0.9-0.1-2-0.2-3.1-0.2c-1.1,0-2.3,0-3.5,0.2
			c-0.2,1.7-0.7,4.1-1.3,7.4c0.7,0.1,3.2,0.2,7.4,0.4c2.4,0.1,4,0.2,4.6,0.3c0.7,0.1,1.3,0.4,1.8,1c0.5,0.5,0.6,1.2,0.5,2
			c-0.2,1.5-1.1,2.2-2.8,2.2c-1-0.1-2.5-0.2-4.5-0.3c-1.8-0.1-4.5-0.2-8.1-0.5c-0.3,1.6-0.6,2.9-0.7,3.8c-0.4,2.5-0.4,3.9-0.2,4.2
			c0.1,0.2,0.9,0.4,2.3,0.6c0.8,0.1,1.9,0.3,3.5,0.5c1.6,0.2,2.7,0.4,3.5,0.5c0.2,0,0.6,0.1,1.1,0.1s0.9,0,1.1,0
			c0.7,0.1,1.3,0.4,1.8,0.9c0.5,0.6,0.7,1.2,0.6,2.1c-0.2,1.4-1.1,2.1-2.6,2.2c-1.3,0.1-3.9-0.2-7.8-0.8c-4.1-0.6-6.7-1.6-7.7-2.8
			c-1.2-1.4-1.5-4.1-0.9-8.2c0.2-1.7,0.7-4.2,1.5-7.5s1.2-5.8,1.5-7.5c0.1-0.4,0.1-1.1,0.1-2c0-0.9,0-1.5,0.1-2
			c0.3-1.9,1.3-2.7,3.1-2.5c0.6,0.1,1,0.3,1.5,0.7c1.5-0.1,2.9-0.2,4.3-0.2c1.3,0,2.6,0.1,3.7,0.3c3.2,0.5,5.6,1.2,7.4,2.2
			c1.1,0.6,1.5,1.5,1.4,2.6c-0.1,0.7-0.4,1.2-0.9,1.6C236.6,33.4,235.9,33.6,235.2,33.5z"/>
		<path class="st0" d="M262.4,39.1c-1-0.1-2.5-0.4-4.5-0.9c-2-0.4-3.5-0.7-4.5-0.9c-0.2,1.4-0.4,4-0.6,7.7c-0.2,3.3-0.5,5.8-0.7,7.7
			c-0.1,0.4-0.1,1.1-0.2,1.9c0,0.9-0.1,1.5-0.2,1.9c-0.1,0.9-0.5,1.8-1,2.4c-0.7,0.9-1.5,1.3-2.4,1.1c-0.7-0.1-1.3-0.4-1.7-0.9
			c-0.5-0.6-0.7-1.2-0.6-2c0-0.2,0.1-0.4,0.2-0.8c0.1-0.3,0.2-0.6,0.2-0.8c0.1-0.6,0.2-1.5,0.3-2.6s0.2-2.1,0.3-2.6
			c0.2-1.7,0.5-4,0.6-6.9c0.2-3.3,0.4-5.6,0.5-6.9l-1-0.1c-2.8-0.4-5-0.9-6.6-1.6c-1.3-0.5-1.9-1.5-1.7-2.8c0.1-0.6,0.4-1.2,0.9-1.6
			c0.6-0.5,1.3-0.7,2.2-0.5c0.4,0.1,1.4,0.3,2.9,0.8c1.2,0.3,2.2,0.5,3,0.7c0.8,0.1,1.9,0.3,3.4,0.5c1.5,0.2,2.7,0.4,3.4,0.5
			c1,0.1,2.4,0.4,4.2,0.8c1.9,0.4,3.3,0.7,4.2,0.8c0.8,0.1,1.3,0.5,1.8,1c0.4,0.6,0.6,1.2,0.5,1.9s-0.5,1.3-1,1.7
			C263.9,39.1,263.2,39.2,262.4,39.1z"/>
		<path class="st0" d="M285.6,66.2c-1-0.2-1.8-1.5-2.5-3.9c-0.4-1.6-0.8-3.4-0.9-5.4c-0.9,0-2.5-0.1-4.6-0.3c-2-0.2-3.5-0.2-4.6-0.2
			c-0.8,1.3-2.1,3.2-3.9,5.8c-0.7,0.8-1.5,1.2-2.5,1c-0.7-0.1-1.3-0.4-1.8-1c-0.5-0.6-0.7-1.2-0.6-1.9c0.1-0.6,1.3-2.7,3.7-6.1
			c-0.1-0.4-0.1-0.8-0.1-1.1c0.1-0.6,0.8-1,2-1.1c2.2-2.8,4.7-5.7,7.4-8.7c3.8-4.3,6.1-6.4,6.8-6.3c1.4,0.2,2.2,1.2,2.4,2.9
			c0.1,1.4,0.1,3.4,0.3,6.2c0.2,3.7,0.5,8,1,12.8c0,0.4,0.2,1.2,0.6,2.6c0.3,1.1,0.4,2,0.3,2.5c-0.1,0.7-0.5,1.3-1.1,1.7
			C287,66.2,286.3,66.3,285.6,66.2z M281.5,45.9c-1.2,1.5-2.9,3.6-5.1,6.2c0.6,0,1.5,0,2.7,0.1c1.4,0.1,2.3,0.2,2.7,0.2
			C281.7,50.7,281.6,48.6,281.5,45.9z M291.6,29.9c-0.7,0.4-1.7,1-2.8,1.9c-1.2,1-2.1,1.6-2.8,2c-0.5,0.3-1.1,0.4-1.7,0.3
			c-0.7-0.1-1.2-0.4-1.6-0.9c-0.4-0.5-0.6-1-0.5-1.6c0.1-0.5,0.4-0.9,1-1.4c0.5-0.4,1-0.7,1.6-1.1c1.6-1.3,2.5-2,2.7-2.2
			c1.3-0.9,2.4-1.2,3.3-1.1c0.7,0.1,1.2,0.4,1.6,0.9c0.4,0.5,0.6,1,0.5,1.6C292.7,29.1,292.3,29.6,291.6,29.9z"/>
		<path class="st0" d="M313.3,49.3c-1.1-0.2-1.9-0.9-2.2-2.2c-0.2-0.6-0.4-1-0.6-1.1c-0.2-0.1-0.7-0.2-1.5-0.4
			c-1.6-0.2-3.6,0.7-6,2.9c-3.4,3-5.3,6-5.8,9c-0.2,1.4,0.1,2.6,0.8,3.7c0.8,1.1,1.8,1.8,3.1,2c1.2,0.2,2.5,0,3.9-0.4
			c0.5-0.2,1.5-0.6,3.1-1.4c1.1-0.5,1.9-0.7,2.4-0.6c0.8,0.1,1.3,0.5,1.8,1.1c0.4,0.6,0.6,1.2,0.5,1.9c-0.1,0.7-0.5,1.3-1.3,1.8
			c-3.9,2.4-7.6,3.3-11.2,2.8c-2.8-0.4-5-1.8-6.7-4.1c-1.6-2.3-2.1-4.7-1.7-7.4c0.6-4.2,3.1-8.2,7.4-12c3.7-3.2,7.1-4.6,10.4-4.1
			c0.6,0.1,1,0.2,1.5,0.3c0.4,0.1,0.8,0.2,1.1,0.3c0.6-0.5,1.3-0.6,2.1-0.5c1.3,0.2,2,1,2,2.5c0.1,1.1,0,2.3-0.2,3.7
			c-0.1,0.6-0.4,1.2-0.8,1.6C315,49.2,314.2,49.4,313.3,49.3z"/>
		<path class="st0" d="M335.5,69.7c-1.1,1.1-2.4,2-3.8,2.6c-1.7,0.8-3.4,1-5.1,0.8c-3.2-0.5-5.5-1.4-6.8-2.9c-2.9-3-3.9-7.7-2.9-14
			c0.1-0.6,0.3-1.5,0.5-2.7c0.2-1.2,0.4-2.1,0.5-2.7c0.1-0.5,0.2-1.2,0.4-2.1c0.2-0.9,0.3-1.7,0.4-2.1c0.1-1,0.5-1.9,1-2.7
			c0.7-1.1,1.4-1.6,2.3-1.4c0.7,0.1,1.3,0.4,1.7,0.9c0.5,0.6,0.7,1.2,0.6,1.9c-0.1,0.7-0.3,1.8-0.5,3.2c-0.2,1.4-0.4,2.5-0.5,3.2
			c-0.1,0.6-0.3,1.5-0.5,2.6c-0.2,1.2-0.4,2.1-0.5,2.6c-0.3,1.9-0.3,3.7-0.1,5.4c0.2,2,0.8,3.5,1.7,4.4c0.5,0.5,1.7,0.9,3.7,1.2
			c3.3,0.5,5.9-1.9,7.9-7.4c1-2.9,2-6.9,2.7-12.3c0.1-0.7,0.4-1.3,0.9-1.9c0.7-0.8,1.6-1.1,2.6-0.9c0.9,0.1,1.4,0.5,1.8,1.2
			c0.3,0.5,0.3,1,0.3,1.6c-0.7,4.9-1.5,8.8-2.4,11.5C339.9,63.9,338,67.2,335.5,69.7z"/>
		<path class="st0" d="M361.4,76.2c-1.6,0.4-3.9,0.7-7.1,0.7c-2.9,0.1-5.3-0.1-7.1-0.3c-3.1-0.5-4.4-2-4-4.7c0,0.2,0.4-1.8,1.3-5.9
			c1.1-5.4,2.2-11.4,3.2-18.1c0.1-0.7,0.4-1.3,1-1.7s1.2-0.6,2-0.5c0.8,0.1,1.3,0.5,1.8,1c0.4,0.6,0.6,1.2,0.5,1.9
			c-1,6.7-2.1,12.8-3.3,18.4c-0.3,1-0.6,2.5-1,4.5c3,0.4,6.9,0.2,11.7-0.5c0.3,0,0.6,0,0.8,0c0.8,0.1,1.4,0.5,1.8,1.1
			c0.4,0.6,0.5,1.2,0.4,1.8C363.2,75.1,362.6,75.8,361.4,76.2z"/>
		<path class="st0" d="M377.5,80.4c-3.7-0.6-6.7-2.1-9-4.6c-2.4-2.7-3.4-5.8-2.8-9.5c0.6-4.3,2.5-7.9,5.7-11
			c3.6-3.5,7.6-4.9,12.2-4.2c4.4,0.7,7.5,2.1,9.4,4.5c1.9,2.3,2.5,5.5,1.9,9.5c-0.6,4.3-2.4,7.9-5.4,11
			C386,79.7,382,81.1,377.5,80.4z M382.8,56.2c-2.8-0.4-5.4,0.6-7.8,3c-2.2,2.2-3.6,4.9-4,8c-0.3,2.1,0.2,3.9,1.7,5.4
			c1.4,1.5,3.2,2.4,5.6,2.8c2.8,0.4,5.2-0.6,7.5-3c2.1-2.2,3.3-4.9,3.8-8c0.4-2.6,0.1-4.5-0.9-5.7C387.6,57.4,385.7,56.6,382.8,56.2
			z"/>
	</g>
	<g>
		<path class="st0" d="M497,216.2c-1,0.1-2.5,0.1-4.6,0.1c-2,0-3.6,0-4.6,0.1c0.2,1.4,0.5,4,1.1,7.6c0.5,3.2,0.8,5.8,0.9,7.7
			c0,0.4,0.1,1.1,0.3,1.9c0.1,0.8,0.2,1.5,0.3,1.9c0.1,0.9-0.1,1.8-0.4,2.6c-0.4,1-1.2,1.5-2.1,1.6c-0.7,0-1.3-0.1-1.9-0.5
			c-0.6-0.5-1-1-1-1.8c0-0.2,0-0.4,0-0.8c0-0.4,0-0.6,0-0.8c0-0.6-0.1-1.5-0.3-2.6c-0.2-1.2-0.3-2-0.3-2.6c-0.1-1.7-0.4-4-0.9-6.8
			c-0.5-3.3-0.9-5.6-1-6.8l-1,0.1c-2.8,0.2-5.1,0.2-6.7-0.1c-1.4-0.2-2.2-1-2.3-2.3c0-0.6,0.1-1.2,0.6-1.8c0.5-0.7,1.2-1,2-1
			c0.4,0,1.5,0,3,0.1c1.3,0.1,2.3,0.1,3,0s1.9-0.1,3.5-0.3s2.7-0.2,3.5-0.3c1-0.1,2.4-0.1,4.3-0.1c1.9,0,3.4,0,4.3-0.1
			c0.8-0.1,1.4,0.1,2,0.6c0.5,0.5,0.8,1,0.9,1.8c0.1,0.7-0.2,1.3-0.6,1.9C498.4,215.9,497.8,216.2,497,216.2z"/>
		<path class="st0" d="M516,238.8c-3.7,0.3-7-0.6-9.8-2.5c-3-2.1-4.6-5-4.8-8.6c-0.3-4.3,0.8-8.3,3.2-12c2.7-4.2,6.4-6.4,11-6.8
			c4.4-0.3,7.8,0.5,10.1,2.3c2.3,1.9,3.6,4.8,3.9,8.9c0.3,4.3-0.7,8.3-2.9,11.9C524.2,236.3,520.6,238.5,516,238.8z M516,214
			c-2.8,0.2-5.1,1.7-6.9,4.6c-1.7,2.7-2.4,5.6-2.2,8.7c0.1,2.1,1.1,3.7,2.8,4.9c1.7,1.2,3.7,1.6,6.1,1.5c2.8-0.2,5-1.7,6.7-4.6
			c1.5-2.6,2.2-5.5,2-8.7c-0.2-2.7-0.9-4.5-2.2-5.4C520.9,214.2,518.9,213.8,516,214z"/>
		<path class="st0" d="M539.1,225.5c-0.2,0-0.7,0-1.6,0c0,1.8,0.2,4.7,0.5,8.7c0,0.7-0.1,1.3-0.6,1.8c-0.4,0.5-1,0.8-1.7,0.8
			c-0.7,0.1-1.3-0.1-1.8-0.6c-0.5-0.4-0.8-1-0.8-1.7l-0.4-5.3c-0.1-2-0.2-4.9-0.2-8.7c0-3.9-0.1-6.8-0.2-8.8
			c-0.2-3.3,0.6-4.9,2.4-4.9c0.4-0.1,1-0.3,1.8-0.4c0.8-0.1,1.7-0.2,2.8-0.3c2.5-0.2,4.9,0.5,7.1,1.9c2.5,1.6,3.9,3.7,4.1,6.3
			c0.2,3.2-0.9,5.9-3.3,8C544.9,224.2,542.2,225.2,539.1,225.5z M539,211.1c-0.4,0-0.8,0.1-1.1,0.1c-0.3,0-0.6,0.1-0.8,0.1
			c0,0.6,0.1,1.5,0.2,2.7c0.1,1.4,0.1,3.6,0.1,6.6c0.7,0.1,1.1,0.1,1.3,0.1c2-0.1,3.6-0.7,4.8-1.7c1.3-1.1,1.9-2.5,1.8-4.1
			c-0.1-1.1-0.8-2-2.2-2.7C541.9,211.3,540.5,211,539,211.1z"/>
		<path class="st0" d="M559.8,224c-0.2,0-0.7,0-1.6,0c0,1.8,0.2,4.7,0.5,8.7c0,0.7-0.1,1.3-0.6,1.8c-0.4,0.5-1,0.8-1.7,0.8
			c-0.7,0.1-1.3-0.1-1.8-0.6c-0.5-0.4-0.8-1-0.8-1.7l-0.4-5.3c-0.1-2-0.2-4.9-0.2-8.7c0-3.9-0.1-6.8-0.2-8.8
			c-0.2-3.3,0.6-4.9,2.4-4.9c0.4-0.1,1-0.3,1.8-0.4c0.8-0.1,1.7-0.2,2.8-0.3c2.5-0.2,4.9,0.5,7.1,1.9c2.5,1.6,3.9,3.7,4.1,6.3
			c0.2,3.2-0.9,5.9-3.3,8C565.5,222.8,562.9,223.8,559.8,224z M559.7,209.6c-0.4,0-0.8,0.1-1.1,0.1s-0.6,0.1-0.8,0.1
			c0,0.6,0.1,1.5,0.2,2.7c0.1,1.4,0.1,3.6,0.1,6.6c0.7,0.1,1.1,0.1,1.3,0.1c2-0.1,3.6-0.7,4.8-1.7c1.3-1.1,1.9-2.5,1.8-4.1
			c-0.1-1.1-0.8-2-2.2-2.7C562.6,209.9,561.2,209.5,559.7,209.6z"/>
		<path class="st0" d="M592.6,207.9c-0.3,0-0.5,0-0.8-0.1c-2.1-0.4-4.1-0.5-6-0.4c-0.9,0.1-2,0.2-3,0.4c-1.1,0.2-2.2,0.5-3.4,0.9
			c0.1,1.7,0.2,4.2,0.4,7.5c0.7-0.1,3.2-0.5,7.4-1.2c2.4-0.4,3.9-0.6,4.6-0.7c0.7-0.1,1.4,0.1,2,0.6c0.6,0.4,0.9,1,0.9,1.8
			c0.1,1.5-0.6,2.4-2.2,2.7c-1,0.1-2.5,0.4-4.5,0.7c-1.8,0.3-4.5,0.8-8,1.3c0,1.6,0.1,2.9,0.1,3.9c0.2,2.5,0.4,3.9,0.7,4.2
			c0.1,0.2,1,0.2,2.4,0.1c0.8-0.1,2-0.2,3.5-0.3c1.6-0.1,2.8-0.2,3.5-0.3c0.2,0,0.6-0.1,1.1-0.2c0.5-0.1,0.9-0.2,1.1-0.2
			c0.7-0.1,1.4,0.1,1.9,0.5c0.6,0.4,1,1.1,1,1.9c0.1,1.4-0.6,2.3-2,2.7c-1.2,0.3-3.9,0.6-7.8,0.9c-4.1,0.3-6.8-0.1-8.2-1.1
			c-1.5-1.1-2.3-3.7-2.6-7.8c-0.1-1.7-0.2-4.2-0.2-7.6c0-3.4,0-5.9-0.2-7.6c0-0.4-0.1-1.1-0.3-1.9c-0.2-0.9-0.3-1.5-0.3-1.9
			c-0.1-1.9,0.7-2.9,2.4-3.1c0.6,0,1.1,0.1,1.6,0.4c1.4-0.5,2.8-0.8,4.1-1.1s2.5-0.5,3.7-0.5c3.2-0.2,5.7,0,7.7,0.6
			c1.2,0.4,1.8,1.1,1.9,2.3c0,0.7-0.1,1.3-0.6,1.8C594,207.5,593.4,207.9,592.6,207.9z"/>
		<path class="st0" d="M618.9,230.7c-0.7,0-1.3-0.2-1.9-0.7c-4.1-3.3-8.5-5.5-13.1-6.6c0.4,3.7,0.6,5.7,0.6,6.1
			c0.1,0.7-0.2,1.3-0.6,1.9c-0.5,0.5-1.1,0.8-1.8,0.9c-0.8,0.1-1.4-0.2-1.9-0.6c-0.5-0.5-0.8-1.1-0.9-1.8c-0.1-0.9-0.2-2.4-0.3-4.3
			c-0.1-1.9-0.2-3.3-0.3-4.3l-1-15.3c-0.1-0.8,0.1-1.6,0.6-2.3c0.6-0.9,1.4-1.4,2.6-1.3c3.1,0,4.7,0,4.7,0c1.8,0.1,3.3,0.4,4.6,1
			c5.6,2.3,8.5,5.5,8.8,9.5c0.1,1.7-0.3,3.2-1.4,4.5c-1,1.3-2.7,2.5-4.9,3.6c3.5,1.6,6.1,3.4,8,5.2c0.5,0.5,0.7,1,0.8,1.6
			c0,0.7-0.2,1.3-0.7,1.9C620.2,230.3,619.6,230.6,618.9,230.7z M605.1,207.7c-0.1,0-0.8,0-2.2,0l0.7,10.1c0.3,0,0.6,0,0.8,0
			c3.1-0.2,5.4-0.8,6.8-1.6c0.6-0.4,1.2-0.8,1.7-1.4c0.5-0.6,0.7-1,0.7-1.3c-0.1-1.4-1.1-2.7-3-3.9
			C608.8,208.4,607,207.8,605.1,207.7z"/>
		<path class="st0" d="M633.2,230.6c-3.2,0.2-5.8-0.3-7.7-1.6c-1.6-1.1-2.5-2.4-2.6-3.9c-0.1-0.8,0.1-1.5,0.6-2
			c0.4-0.6,1.1-0.9,1.9-0.9c1.1-0.1,2,0.4,2.6,1.6c0.8,1.5,2.5,2.2,5,2c2.2-0.2,4.2-0.8,6.2-1.9c2-1.1,3-2.3,2.9-3.4
			c-0.1-1.6-0.8-2.6-2.2-3c-1-0.3-2.8-0.4-5.7-0.2c-2.2,0.1-4.2-0.2-6-0.8c-2.4-0.9-3.7-2.3-3.8-4.3c-0.1-2.5,1-4.8,3.5-7
			s5.2-3.5,8.3-3.7c1.2-0.1,2.8,0.1,4.6,0.5c2.3,0.5,3.5,1.3,3.6,2.2c0,0.7-0.1,1.3-0.6,1.8c-0.5,0.6-1.1,0.9-1.9,1
			c-0.6,0-1.5,0-2.7-0.2c-1.2-0.2-2.1-0.2-2.7-0.2c-1.6,0.1-3.1,0.6-4.6,1.5c-1.5,0.9-2.2,1.8-2.1,2.7c0,0.5,0.3,0.9,0.8,1.1
			c0.5,0.3,1.2,0.4,2.1,0.5c1.6,0,3.2-0.1,4.8-0.1c2.8,0,5.1,0.7,6.8,1.9c1.9,1.4,2.9,3.4,3.1,6.1c0.2,3.3-1.5,5.9-5,7.8
			C640.1,229.5,636.9,230.4,633.2,230.6z"/>
		<path class="st0" d="M664.2,228.4c-3.7,0.3-7-0.6-9.8-2.5c-3-2.1-4.6-5-4.8-8.6c-0.3-4.3,0.8-8.3,3.2-12c2.7-4.2,6.4-6.4,11-6.8
			c4.4-0.3,7.8,0.5,10.1,2.3c2.3,1.9,3.6,4.8,3.9,8.9c0.3,4.3-0.7,8.3-2.9,11.9C672.4,225.8,668.8,228.1,664.2,228.4z M664.1,203.6
			c-2.8,0.2-5.1,1.7-6.9,4.6c-1.7,2.7-2.4,5.6-2.2,8.7c0.1,2.1,1.1,3.7,2.8,4.9c1.7,1.2,3.7,1.6,6.1,1.5c2.8-0.2,5-1.7,6.7-4.6
			c1.5-2.6,2.2-5.5,2-8.7c-0.2-2.7-0.9-4.5-2.2-5.4C669.1,203.8,667,203.4,664.1,203.6z"/>
		<path class="st0" d="M709.8,219.4c0,0.6,0,1.6-0.1,3c-0.1,1.6-1,2.5-2.6,2.6c-0.9,0.1-1.9-0.4-3.1-1.3c-5.2-4-11.1-9.8-17.7-17.3
			c0.2,3.3,0.3,5.3,0.3,6c0.1,1,0.2,2.5,0.4,4.5c0.2,2,0.3,3.5,0.4,4.5c0.3,3.7-0.5,5.6-2.3,5.8c-0.9,0.1-1.7-0.2-2.3-0.7
			c-0.5-0.5-0.8-1.1-0.9-1.8c0-0.5,0-1.3,0-2.3c0-1,0-1.8,0-2.3c-0.1-0.7-0.1-1.9-0.2-3.4c-0.1-1.5-0.1-2.6-0.2-3.4
			c-0.1-0.8-0.2-2-0.3-3.6c-0.2-1.6-0.3-2.8-0.3-3.6c-0.1-0.8-0.2-1.9-0.5-3.4c-0.3-1.5-0.4-2.6-0.5-3.4c-0.1-0.8,0.2-1.5,0.8-2.1
			c0.6-0.6,1.3-1,2.2-1c0.9-0.1,2,0.7,3.3,2.2c6.3,7.8,12.4,14,18.4,18.8c0-0.4-0.1-1.4-0.2-2.9c-0.4-6.2-0.8-10.4-1.1-12.6
			c-0.1-0.4-0.2-1-0.4-2c-0.2-0.9-0.3-1.6-0.3-2.1c-0.1-1.7,0.7-2.7,2.6-2.8c2.1-0.1,3.3,3,3.8,9.3c0,0.1,0.1,1.1,0.2,3
			C709.4,213.8,709.7,217.8,709.8,219.4z"/>
	</g>
	<g>
		<path class="st0" d="M297.2,239c-3.2-0.4-5.6-1.4-7.3-3c-1.4-1.4-2-2.8-1.8-4.4c0.1-0.8,0.4-1.4,1-1.9c0.5-0.5,1.2-0.6,2.1-0.5
			c1.1,0.1,1.9,0.8,2.3,2c0.5,1.6,2.1,2.6,4.6,2.9c2.2,0.3,4.3,0,6.4-0.7c2.2-0.7,3.4-1.6,3.5-2.8c0.2-1.6-0.3-2.7-1.6-3.4
			c-0.9-0.5-2.7-0.9-5.5-1.3c-2.2-0.3-4.1-1-5.7-1.9c-2.2-1.3-3.2-3-2.9-4.9c0.3-2.4,1.9-4.5,4.7-6.3c2.8-1.7,5.8-2.4,8.9-2
			c1.2,0.1,2.7,0.6,4.5,1.4c2.2,1,3.2,1.9,3.1,2.8c-0.1,0.7-0.4,1.2-0.9,1.7c-0.6,0.5-1.3,0.7-2,0.6c-0.6-0.1-1.5-0.3-2.6-0.7
			c-1.1-0.4-2-0.6-2.6-0.7c-1.6-0.2-3.2,0-4.8,0.6c-1.6,0.6-2.5,1.4-2.6,2.3c-0.1,0.5,0.1,0.9,0.5,1.3c0.4,0.4,1.1,0.7,2,0.9
			c1.6,0.3,3.2,0.6,4.8,0.8c2.8,0.6,4.9,1.6,6.3,3.2c1.6,1.7,2.2,3.9,1.9,6.6c-0.4,3.2-2.5,5.5-6.4,6.7
			C304.2,239.2,300.9,239.4,297.2,239z"/>
		<path class="st0" d="M335.5,239.2c-1.1,1.1-2.3,2-3.7,2.7c-1.7,0.8-3.4,1.1-5.1,0.9c-3.2-0.4-5.5-1.3-6.9-2.7
			c-3-3-4.1-7.6-3.3-13.9c0.1-0.6,0.2-1.5,0.4-2.7c0.2-1.2,0.3-2.1,0.4-2.7c0.1-0.5,0.2-1.2,0.3-2.2c0.1-1,0.2-1.7,0.3-2.2
			c0.1-1,0.4-1.9,0.9-2.7c0.6-1.1,1.4-1.6,2.3-1.5c0.7,0.1,1.3,0.4,1.7,0.9c0.5,0.5,0.7,1.2,0.6,1.9c-0.1,0.7-0.2,1.8-0.4,3.2
			c-0.2,1.4-0.3,2.5-0.4,3.2c-0.1,0.6-0.2,1.5-0.4,2.7c-0.2,1.2-0.3,2.1-0.4,2.7c-0.2,1.9-0.2,3.7,0,5.4c0.3,2,0.9,3.5,1.8,4.4
			c0.5,0.5,1.7,0.8,3.7,1.1c3.3,0.5,5.9-2.1,7.7-7.7c1-2.9,1.8-7,2.4-12.3c0.1-0.7,0.4-1.4,0.9-2c0.7-0.8,1.5-1.1,2.6-1
			c0.9,0.1,1.5,0.5,1.8,1.2c0.3,0.5,0.4,1,0.3,1.6c-0.6,5-1.3,8.8-2.1,11.5C339.7,233.2,337.9,236.6,335.5,239.2z"/>
		<path class="st0" d="M350.9,233.7c-0.2,0-0.7-0.1-1.6-0.3c-0.3,1.8-0.7,4.6-1.2,8.7c-0.1,0.7-0.4,1.2-0.9,1.6
			c-0.5,0.4-1.1,0.6-1.9,0.5c-0.7-0.1-1.3-0.4-1.7-0.9c-0.4-0.5-0.6-1.1-0.5-1.8l0.6-5.3c0.2-1.9,0.7-4.8,1.4-8.6
			c0.7-3.9,1.2-6.7,1.4-8.6c0.4-3.3,1.5-4.7,3.3-4.4c0.4-0.1,1-0.1,1.8,0c0.8,0,1.7,0.1,2.8,0.2c2.5,0.3,4.7,1.4,6.6,3.2
			c2.2,2.1,3.1,4.4,2.8,7c-0.4,3.2-2,5.6-4.8,7.2C356.8,233.5,354,234,350.9,233.7z M353.5,219.5c-0.4,0-0.8-0.1-1.1-0.1
			c-0.3,0-0.6,0-0.8,0c-0.1,0.6-0.2,1.5-0.3,2.7c-0.2,1.4-0.6,3.5-1.1,6.5c0.6,0.2,1,0.3,1.3,0.3c2,0.2,3.6,0,5-0.8
			c1.5-0.8,2.4-2.1,2.5-3.7c0.1-1.1-0.4-2.1-1.6-3.1C356.3,220.3,355,219.7,353.5,219.5z"/>
		<path class="st0" d="M382.7,225.6c-0.6-0.1-2.2-0.4-4.9-1.1c-0.5,2.3-0.9,5.3-1.4,9.2l-1,8.5c1.7,0.2,3.4,0.4,5.1,0.6
			c0.8,0.1,1.3,0.4,1.8,1c0.4,0.6,0.6,1.2,0.5,1.9c-0.1,0.7-0.4,1.3-1,1.7s-1.2,0.6-2,0.5c-0.7-0.1-1.8-0.2-3.2-0.3
			c-1.4-0.1-2.5-0.3-3.2-0.3c-0.8-0.1-2.1-0.1-3.9-0.1c-1.7,0-3,0-3.9-0.1c-0.8-0.1-1.4-0.4-1.8-1c-0.4-0.6-0.6-1.2-0.5-1.9
			c0.1-0.7,0.4-1.3,1-1.7c0.6-0.4,1.3-0.6,2.1-0.5c0.9,0.1,2.1,0.2,3.6,0.2c0.2-1.5,0.5-4.3,1-8.5c0.4-3.4,0.9-6.7,1.6-9.7l-4.1-0.4
			c-0.8-0.1-1.4-0.4-1.8-1c-0.4-0.6-0.6-1.2-0.5-1.9c0.1-0.7,0.4-1.3,0.9-1.7c0.5-0.4,1.1-0.5,1.8-0.5c1.1,0,3,0.2,5.6,0.5
			c2.4,0.3,5.4,0.9,9.1,1.9c1.5,0.4,2.1,1.4,1.9,2.9c-0.1,0.8-0.5,1.4-1.1,1.8C383.8,225.5,383.3,225.7,382.7,225.6z"/>
		<path class="st0" d="M395.2,234.6c-0.8,2-2,4.9-3.5,8.9c-0.4,1.4-0.8,2.8-1.2,4.2c-0.7,1.7-1.8,2.5-3.2,2.3
			c-0.9-0.1-1.5-0.5-1.9-1.1c-0.4-0.6-0.5-1.2-0.4-1.9c0.2-2,1-4.5,2.2-7.3c1.8-4.2,2.8-6.6,3-7c0.6-1.9,1.2-3.8,1.8-5.7
			c0.9-2.6,1.7-4.3,2.5-5.1c0.8-0.8,1.7-1.1,2.7-1c1.1,0.1,1.9,0.8,2.3,2c0.4,1.2,0.6,3.5,0.8,6.9c0.2,3.3,0.5,7,1.2,10.9
			c1.9-3.6,3.7-7.5,5.5-11.8l1.6-4.2c0.9-1.7,2.1-2.5,3.5-2.3c1.4,0.2,2.3,1.3,2.7,3.5c0.2,0.9,0.3,2.5,0.3,4.8
			c0.1,5.4,0.4,10.1,1.1,14.1c0.6,4,0.9,6.2,0.9,6.5c-0.1,0.7-0.5,1.3-1.1,1.8c-0.6,0.4-1.3,0.5-1.9,0.5c-1.4-0.2-2.3-1.3-2.7-3.3
			l-0.5-4.7c-0.3-2.3-0.6-5.7-0.8-10c-0.8,1.6-2,4.1-3.8,7.6l-1.5,3.3c-0.6,1.3-1.2,2.4-1.9,3.2c-0.8,1.1-1.8,1.6-3,1.4
			c-1.2-0.1-2-1-2.5-2.4l-0.6-3.6C396,241.7,395.6,238.2,395.2,234.6z"/>
		<path class="st0" d="M426.5,242.8c-0.2,0-0.7-0.1-1.6-0.3c-0.3,1.8-0.7,4.6-1.2,8.7c-0.1,0.7-0.4,1.2-0.9,1.6
			c-0.5,0.4-1.1,0.6-1.9,0.5c-0.7-0.1-1.3-0.4-1.7-0.9c-0.4-0.5-0.6-1.1-0.5-1.8l0.6-5.3c0.2-1.9,0.7-4.8,1.4-8.6
			c0.7-3.9,1.2-6.7,1.4-8.6c0.4-3.3,1.5-4.7,3.3-4.4c0.4-0.1,1-0.1,1.8,0s1.7,0.1,2.8,0.2c2.5,0.3,4.7,1.4,6.6,3.2
			c2.2,2.1,3.1,4.4,2.8,7c-0.4,3.2-2,5.6-4.8,7.2C432.5,242.7,429.7,243.2,426.5,242.8z M429.2,228.7c-0.4,0-0.8-0.1-1.1-0.1
			c-0.3,0-0.6,0-0.8,0c-0.1,0.6-0.2,1.5-0.3,2.7c-0.2,1.4-0.6,3.5-1.1,6.5c0.6,0.2,1,0.3,1.3,0.3c2,0.2,3.6,0,5-0.8
			c1.5-0.8,2.4-2.1,2.5-3.7c0.1-1.1-0.4-2.1-1.6-3.1C432,229.5,430.7,228.9,429.2,228.7z"/>
		<path class="st0" d="M461.5,258.3c-1-0.2-1.8-1.4-2.6-3.9c-0.5-1.6-0.9-3.3-1.1-5.3c-0.9,0-2.5,0-4.6-0.1c-2-0.1-3.5-0.1-4.6-0.1
			c-0.7,1.3-2,3.3-3.8,5.9c-0.7,0.8-1.5,1.2-2.5,1.1c-0.7-0.1-1.3-0.4-1.8-0.9c-0.5-0.5-0.7-1.2-0.6-1.9c0.1-0.6,1.3-2.7,3.5-6.2
			c-0.1-0.4-0.2-0.8-0.1-1.1c0.1-0.6,0.8-1,2-1.2c2.2-2.9,4.5-5.8,7.1-8.9c3.7-4.4,5.9-6.5,6.7-6.4c1.4,0.2,2.2,1.1,2.5,2.8
			c0.1,1.4,0.2,3.4,0.5,6.2c0.3,3.7,0.8,8,1.3,12.8c0,0.4,0.3,1.2,0.7,2.6c0.3,1.1,0.4,2,0.4,2.5c-0.1,0.7-0.4,1.3-1,1.7
			C462.9,258.2,462.2,258.4,461.5,258.3z M456.8,238.1c-1.2,1.6-2.8,3.7-4.9,6.4c0.6-0.1,1.5-0.1,2.7,0c1.4,0.1,2.3,0.1,2.7,0.1
			C457.2,243,457,240.8,456.8,238.1z"/>
	</g>
	<g>
		<path class="st0" d="M115.6,147.8c3.7-8.6,6.6-15.5,8.6-20.6c1.1-2.7,2.2-5.4,3.2-8.2c1.4-3.2,3-5.7,4.6-7.4
			c1.1-1.1,2.3-1.7,3.8-1.7c1.3,0,2.4,0.5,3.4,1.5c1,0.9,1.4,2.1,1.4,3.4c0,0.9-0.4,1.8-1,2.7c-1.3,1.8-2.5,3.9-3.6,6.4
			c0,0.1-1,2.3-2.7,6.8c-2.2,5.2-5.5,13.1-9.9,23.6c-1.1,2.8-2.5,5.5-4.1,8.2c-1,1.8-2.5,2.6-4.4,2.6c-2.4-0.1-4-1.2-4.9-3.5
			c-2.6-6.8-5.5-16.5-8.5-29.2c-0.9-3.1-1.7-6.3-2.6-9.4c-1.2-4.4-1.7-7.4-1.7-9c0-1.4,0.6-2.5,1.6-3.3c1-0.8,2.1-1.2,3.4-1.1
			c2.2,0.1,3.7,1.3,4.5,3.6c0.4,2,0.8,4,1.2,6c0.7,2.5,1.7,6.3,3,11.3C112.5,136.9,114,142.7,115.6,147.8z"/>
		<path class="st0" d="M168,165.8c-6.8-0.2-12.5-2.3-17.2-6.3c-5-4.3-7.4-9.8-7.2-16.4c0.2-7.8,2.9-14.9,7.9-21.2
			c5.7-7.1,12.7-10.5,21-10.3c8,0.2,14,2.2,17.9,6c3.9,3.8,5.7,9.4,5.5,16.7c-0.2,7.8-2.7,14.8-7.3,21
			C183.2,162.6,176.3,166,168,165.8z M172.3,120.9c-5.1-0.1-9.6,2.2-13.4,7.1c-3.6,4.5-5.4,9.6-5.6,15.3c-0.1,3.8,1.3,7,4.2,9.4
			c2.8,2.4,6.3,3.6,10.7,3.7c5.1,0.1,9.3-2.2,12.8-7.1c3.2-4.4,4.9-9.5,5.1-15.3c0.1-4.8-0.9-8.2-3-10.1
			C181.2,122.1,177.5,121.1,172.3,120.9z"/>
		<path class="st0" d="M236.3,128.9c-2.1-0.1-3.6-1.2-4.5-3.4c-0.4-1-0.9-1.7-1.3-1.9c-0.3-0.2-1.2-0.3-2.7-0.3
			c-2.9-0.1-6.3,2.1-10.2,6.5c-5.5,6.1-8.3,12-8.4,17.5c-0.1,2.5,0.7,4.7,2.3,6.5c1.6,1.8,3.6,2.8,6,2.9c2.3,0.1,4.6-0.5,7-1.6
			c0.8-0.4,2.6-1.5,5.3-3.2c1.8-1.1,3.2-1.7,4.1-1.7c1.4,0,2.5,0.6,3.5,1.6c0.9,1,1.3,2.1,1.3,3.3c0,1.4-0.7,2.5-1.9,3.5
			c-6.5,5.2-13,7.6-19.5,7.5c-5.2-0.1-9.5-2.1-12.9-6c-3.3-3.7-4.9-8-4.7-13c0.2-7.7,3.8-15.5,10.7-23.3c5.9-6.6,11.8-9.9,17.8-9.7
			c1,0,1.9,0.1,2.7,0.2c0.8,0.1,1.5,0.2,2.1,0.4c1-1,2.3-1.4,3.7-1.4c2.3,0.1,3.8,1.4,4.2,4.2c0.3,1.9,0.5,4.2,0.4,6.8
			c0,1.1-0.4,2.2-1.1,3.1C239.3,128.3,238,128.9,236.3,128.9z"/>
		<path class="st0" d="M280.4,122.6c-0.5,0-0.9-0.1-1.4-0.2c-3.7-1.1-7.3-1.7-10.8-1.8c-1.7,0-3.6,0-5.6,0.3c-2,0.2-4.1,0.6-6.3,1.1
			c-0.1,3.1-0.3,7.6-0.7,13.6c1.3-0.1,5.8-0.4,13.5-0.9c4.4-0.3,7.2-0.5,8.4-0.4c1.4,0,2.5,0.5,3.4,1.4c0.9,0.9,1.4,2,1.4,3.5
			c-0.1,2.7-1.6,4.2-4.5,4.5c-1.8,0.1-4.6,0.2-8.3,0.5c-3.3,0.3-8.2,0.6-14.8,0.9c-0.2,2.9-0.4,5.3-0.4,7.1
			c-0.1,4.5,0.1,7.1,0.6,7.7c0.2,0.3,1.7,0.5,4.3,0.6c1.4,0,3.6,0.1,6.4,0.1c2.9,0,5,0,6.4,0.1c0.5,0,1.1,0,2-0.2
			c0.9-0.1,1.6-0.2,2-0.2c1.3,0,2.5,0.4,3.4,1.2c1.1,0.9,1.6,2.1,1.5,3.6c-0.1,2.6-1.5,4.1-4.2,4.5c-2.3,0.4-7.1,0.5-14.3,0.3
			c-7.5-0.2-12.3-1.4-14.6-3.4c-2.4-2.3-3.6-7.2-3.4-14.6c0.1-3.1,0.4-7.7,1.1-13.8c0.6-6.2,1-10.8,1.1-13.8c0-0.8-0.1-2-0.2-3.6
			c-0.2-1.6-0.3-2.8-0.2-3.6c0.1-3.5,1.8-5.2,5-5.1c1,0,1.9,0.3,2.8,0.9c2.7-0.6,5.2-1,7.6-1.3c2.4-0.3,4.7-0.4,6.8-0.3
			c5.8,0.2,10.4,1,13.8,2.4c2.1,0.9,3.1,2.3,3,4.5c0,1.2-0.5,2.2-1.3,3.1C283,122.2,281.8,122.7,280.4,122.6z M277.9,106.3
			c-1.1,0-2.2-0.5-3.1-1.3c-1.6-1.6-4-4-7.3-7.1c-5.7,5.2-9.6,7.8-11.6,7.8c-1.2,0-2.3-0.4-3.1-1.2s-1.3-1.7-1.3-2.7
			c0-1,0.5-1.9,1.6-2.6c1.2-1,4.8-4.1,10.7-9.3c0.9-0.8,2-1.2,3.2-1.2c1.5,0,3.2,0.8,5,2.2c0.7,0.5,2,1.8,4.1,3.8
			c1.2,1.2,3,2.9,5.4,5.3c0.8,0.8,1.2,1.7,1.2,2.7c0,1.1-0.5,2-1.4,2.7C280.2,106,279.1,106.3,277.9,106.3z"/>
		<path class="st0" d="M362.1,148.8c-1.8,6.8-5,12.2-9.9,16.2c-4.9,4-10.6,5.9-17.1,5.7c-6.1-0.2-10.6-1.9-13.6-5.2
			c-3-3.3-4.4-8.2-4.2-14.6c0.2-5.9,1.8-11.9,4.8-18c3.1-6.1,6.9-11,11.6-14.7c3.3-2.6,6.7-3.8,10.4-3.7c2.2,0.1,5.2,1,9,2.7
			c4.5,2,6.7,4.1,6.7,6.3c0,1.2-0.5,2.3-1.5,3.3c-1,1-2.1,1.4-3.5,1.4c-0.7,0-2.2-0.7-4.5-2.1c-2.3-1.4-4.5-2.1-6.4-2.1
			c-2.1-0.1-4.9,2.1-8.6,6.5c-5.3,6.3-8.1,13.3-8.3,20.8c-0.1,3.8,0.4,6.5,1.5,7.9c1.2,1.5,3.4,2.3,6.9,2.4c3.5,0.1,6.6-0.8,9.4-2.7
			c2.9-2,5.1-5.1,6.5-9.1c-5.3,0.3-10,1.2-14,2.9c-0.7,0.3-1.4,0.4-2.1,0.4c-1.4,0-2.6-0.6-3.5-1.7c-0.8-1-1.2-2-1.2-3.2
			c0.1-3.5,4.3-5.9,12.7-7c4.7-0.7,10.2-0.9,16.4-0.7c1.4,0,2.5,0.5,3.4,1.4c0.9,0.9,1.3,2,1.3,3.3
			C364.3,146.6,363.6,147.9,362.1,148.8z"/>
		<path class="st0" d="M406.6,171.3c-1.8-0.1-3.6-2.3-5.3-6.6c-1.1-2.7-2.1-5.9-2.9-9.5c-1.7,0.2-4.5,0.4-8.4,0.5
			c-3.6,0.2-6.4,0.4-8.4,0.7c-1.1,2.5-3.1,6.2-5.8,11.3c-1.1,1.6-2.5,2.4-4.3,2.4c-1.3,0-2.4-0.5-3.4-1.4c-1-0.9-1.5-2-1.4-3.3
			c0-1.2,1.8-5.1,5.4-11.8c-0.3-0.7-0.4-1.4-0.4-2c0.1-1.1,1.3-1.9,3.4-2.5c3.4-5.6,7.2-11.3,11.4-17.3c6-8.5,9.6-12.8,11-12.8
			c2.5,0.1,4.2,1.6,4.9,4.7c0.4,2.5,1,6.2,1.9,11.1c1.2,6.7,2.7,14.3,4.5,22.8c0.1,0.6,0.7,2.2,1.6,4.6c0.8,2,1.1,3.5,1.1,4.5
			c0,1.3-0.6,2.4-1.6,3.3S407.9,171.4,406.6,171.3z M394.7,135.6c-1.9,3-4.5,7.2-7.8,12.4c1-0.2,2.7-0.3,4.8-0.4
			c2.6-0.1,4.2-0.2,4.9-0.2C396.2,144.3,395.5,140.4,394.7,135.6z"/>
		<path class="st0" d="M469.9,163.6c0,1.1-0.3,3-0.7,5.4c-0.5,3-2.3,4.4-5.2,4.3c-1.6,0-3.4-1-5.4-2.9c-8.6-8.2-18.3-19.7-29-34.3
			c-0.3,6-0.5,9.6-0.5,11c-0.1,1.8-0.1,4.5-0.1,8.2c0,3.7-0.1,6.4-0.1,8.2c-0.2,6.8-1.9,10.1-5.2,10c-1.7,0-3-0.6-4-1.7
			c-0.9-0.9-1.3-2.1-1.3-3.4c0-0.9,0.1-2.3,0.3-4.2c0.2-1.9,0.3-3.2,0.3-4.2c0-1.4,0.1-3.4,0.3-6.1c0.2-2.7,0.3-4.7,0.3-6.1
			c0-1.4,0.1-3.6,0.1-6.5c0-2.9,0-5.1,0.1-6.5c0-1.4,0-3.4-0.2-6.2c-0.2-2.7-0.3-4.8-0.2-6.2c0-1.4,0.7-2.6,1.9-3.6
			c1.2-1,2.6-1.5,4.1-1.5c1.7,0,3.5,1.6,5.5,4.6c10,15.2,20,27.6,29.9,37.3c0-0.7,0.1-2.5,0.2-5.2c0.3-11.3,0.4-19,0.3-22.9
			c0-0.7-0.1-1.9-0.3-3.7c-0.2-1.6-0.3-2.9-0.2-3.8c0.1-3.2,1.8-4.7,5.2-4.6c3.7,0.1,5.5,5.9,5.1,17.5c0,0.3-0.1,2.1-0.2,5.4
			C470.2,153.5,469.9,160.7,469.9,163.6z"/>
		<path class="st0" d="M525.6,125.5c-0.5,1.7-0.8,3.1-0.8,4.4c0,0.6-0.1,1.6-0.3,3c-0.2,1.3-0.3,2.3-0.3,3c-0.1,2.2-0.3,5.4-0.6,9.7
			c-0.3,4.3-0.6,7.6-0.6,9.7c0,1.7,0,4.2,0.2,7.6c0.2,3.4,0.2,5.9,0.2,7.6c0,1.3-0.5,2.3-1.4,3.2s-2,1.3-3.4,1.2
			c-1.4,0-2.5-0.5-3.5-1.4c-1-0.9-1.4-2-1.4-3.2c0-1.7,0-4.2,0-7.6c-0.1-3.4-0.1-5.9,0-7.6c0-1.3,0.1-2.5,0.2-3.5
			c-3.6,0.1-8.1,0.5-13.4,1.3c-4.4,0.7-8.9,1.4-13.3,2.1c-0.1,1.5-0.3,3.9-0.7,7.3c-0.3,3-0.5,5.4-0.5,7.4c0,1.2-0.5,2.2-1.4,3
			c-0.9,0.8-2,1.2-3.4,1.1c-1.3,0-2.4-0.5-3.3-1.4c-0.9-0.9-1.3-1.9-1.3-3.2c0.1-2.3,0.4-5.6,0.9-10.1c0.5-4.5,0.8-7.9,0.9-10.1
			c0.1-2.9,0.3-7.2,0.6-13s0.5-10.1,0.6-13c0-1.2,0.5-2.3,1.4-3.1c0.9-0.8,2-1.2,3.4-1.2c1.3,0,2.4,0.5,3.3,1.4
			c0.9,0.9,1.3,2,1.3,3.2c0,1.7-0.2,4.4-0.4,7.9c-0.2,3.5-0.4,6.1-0.4,7.9c0,0.6-0.1,1.7-0.3,3.3c-0.2,1.5-0.3,2.7-0.3,3.5l13.3-2.1
			c5.2-0.8,9.7-1.2,13.4-1.2c0.1-1.6,0.4-5.7,0.8-12.5c0.1-1.8,0.7-3.8,1.8-6.1c1.4-2.8,2.9-4.2,4.5-4.2c1.2,0,2.3,0.5,3.2,1.3
			c1,0.9,1.5,2,1.4,3.3C525.7,124.9,525.7,125.2,525.6,125.5z"/>
		<path class="st0" d="M553.7,176.5c-6.8-0.2-12.5-2.3-17.2-6.3c-5-4.3-7.4-9.8-7.2-16.4c0.2-7.8,2.9-14.9,7.9-21.2
			c5.7-7.1,12.7-10.5,21-10.3c8,0.2,14,2.2,17.9,6c3.9,3.8,5.7,9.4,5.5,16.7c-0.2,7.8-2.7,14.8-7.3,21
			C569,173.2,562.1,176.7,553.7,176.5z M558,131.6c-5.1-0.1-9.6,2.2-13.4,7.1c-3.6,4.5-5.4,9.6-5.6,15.3c-0.1,3.8,1.3,7,4.2,9.4
			c2.8,2.4,6.3,3.6,10.7,3.7c5.1,0.1,9.3-2.2,12.8-7.1c3.2-4.4,4.9-9.5,5.1-15.3c0.1-4.8-0.9-8.2-3-10.1
			C566.9,132.7,563.3,131.7,558,131.6z"/>
		<path class="st0" d="M623,170.3c-1.7,2.2-3.8,4.1-6.2,5.5c-2.9,1.8-5.9,2.6-9,2.5c-5.9-0.2-10.2-1.4-13-3.7
			c-5.9-4.8-8.7-13-8.4-24.6c0-1.1,0.1-2.8,0.3-4.9c0.2-2.2,0.3-3.8,0.3-4.9c0-0.9,0.1-2.2,0.2-3.9c0.1-1.7,0.2-3.1,0.2-3.9
			c0-1.8,0.4-3.5,1.1-5.1c1-2.1,2.2-3.1,3.8-3.1c1.3,0,2.4,0.5,3.3,1.3c1,0.9,1.5,2,1.5,3.3c0,1.3-0.1,3.2-0.2,5.8
			c-0.1,2.6-0.2,4.5-0.2,5.8c0,1.1-0.1,2.7-0.3,4.9s-0.3,3.8-0.3,4.9c-0.1,3.5,0.2,6.7,1,9.7c0.9,3.6,2.2,6.1,4,7.6
			c0.9,0.8,3.2,1.2,6.9,1.4c6.1,0.3,10.3-4.8,12.7-15.2c1.3-5.4,2-12.9,2.3-22.7c0-1.3,0.5-2.5,1.2-3.7c1.1-1.6,2.6-2.3,4.5-2.3
			c1.6,0,2.7,0.7,3.5,1.8c0.6,0.9,0.8,1.8,0.8,2.9c-0.2,9.1-0.9,16.1-1.9,21.2C629.6,158.8,626.9,165.2,623,170.3z"/>
		<path class="st0" d="M643.2,179.1c-1.4,0-2.6-0.8-3.8-2.3c-1-1.4-1.5-2.7-1.5-3.8c0-1.2,0.5-2.2,1.5-3s2-1.2,3.2-1.1
			c1.4,0,2.6,0.8,3.8,2.3c1,1.4,1.5,2.7,1.5,3.8c0,1.2-0.5,2.2-1.5,3C645.5,178.7,644.4,179.1,643.2,179.1z M643.7,166.6
			c-1.3,0-2.3-0.5-3.2-1.3c-0.8-0.8-1.2-1.8-1.2-3.1c0-0.9,0-2.2,0-4c0-1.8,0-3.1,0-4c0.1-3.2,0.2-7.9,0.5-14.3
			c0.2-6.3,0.4-11.1,0.5-14.3c0-1.2,0.5-2.2,1.4-3c0.9-0.8,1.9-1.2,3.2-1.1c1.3,0,2.3,0.5,3.1,1.3c0.8,0.8,1.2,1.9,1.2,3.1l-1,36.6
			c0,1.2-0.5,2.2-1.3,3C646,166.3,644.9,166.6,643.7,166.6z"/>
	</g>
</g>
</svg>
