<?xml version="1.0" encoding="utf-8"?>
<!-- Generator: Adobe Illustrator 21.1.0, SVG Export Plug-In . SVG Version: 6.00 Build 0)  -->
<svg version="1.1" id="perdeu" xmlns="http://www.w3.org/2000/svg" xmlns:xlink="http://www.w3.org/1999/xlink" x="0px" y="0px"
	 viewBox="0 0 268.4 205" width="268px" height="205px" style="enable-background:new 0 0 268.4 205;" xml:space="preserve">
<style type="text/css">
	.st0{fill:none;stroke:#FFFFFF;stroke-width:4;stroke-miterlimit:10;}
	.st1{fill:#00FFFF; animation: chorar 2s ease infinite;}
	.st2{fill:#FFFFFF;}
	.st3{font-family:'ArialMT';}
	.st4{font-size:21.3478px;}
	@keyframes chorar{
		0%{
			transform: translateY(0);
			opacity: 0;
		}
		50%{
			transform: translateY(50%);
			opacity: 1;
		}
		100%{
			transform: translateY(100%);
			opacity: 0;
		}
	}
</style>
<g>
	<g>
		<g>
			<g>
				<circle class="st0" cx="87.4" cy="118.7" r="15.4"/>
				<line class="st0" x1="87.4" y1="134.1" x2="87.4" y2="175.4"/>
				<line class="st0" x1="87.4" y1="143.6" x2="63" y2="155"/>
				<line class="st0" x1="87.4" y1="143.6" x2="111.7" y2="155"/>
				<line class="st0" x1="87.4" y1="175.4" x2="63" y2="203.7"/>
				<line class="st0" x1="87.4" y1="175.4" x2="111.7" y2="203.7"/>
			</g>
		</g>
		<g>
			<g>
				<circle class="st0" cx="148" cy="118.7" r="15.4"/>
				<line class="st0" x1="148" y1="134.1" x2="148" y2="175.4"/>
				<line class="st0" x1="148" y1="143.6" x2="123.6" y2="155"/>
				<line class="st0" x1="148" y1="143.6" x2="172.3" y2="155"/>
				<line class="st0" x1="148" y1="175.4" x2="123.6" y2="203.7"/>
				<line class="st0" x1="148" y1="175.4" x2="172.3" y2="203.7"/>
			</g>
		</g>
		<path class="st0" d="M71.6,119.1c0,4.6-3.7,8.3-8.3,8.3s-8.3-3.7-8.3-8.3"/>
		<path class="st0" d="M119.7,119.1c0,4.6-3.7,8.3-8.3,8.3c-4.6,0-8.3-3.7-8.3-8.3"/>
		<line class="st0" x1="132.2" y1="119.1" x2="182" y2="107.4"/>
	</g>
	<g>
		<g>
			<g>
				<circle class="st0" cx="237.4" cy="75.1" r="23.1"/>
				<line class="st0" x1="237.4" y1="98.3" x2="237.4" y2="160.2"/>
				<line class="st0" x1="237.4" y1="112.4" x2="208" y2="129.6"/>
				<line class="st0" x1="237.4" y1="112.4" x2="266.7" y2="129.6"/>
				<line class="st0" x1="237.4" y1="160.2" x2="208" y2="202.7"/>
				<line class="st0" x1="237.4" y1="160.2" x2="266.7" y2="202.7"/>
			</g>
		</g>
		<polyline class="st0" points="214,75 214,107 261,107 261,75 		"/>
	</g>
	<g>
		<path class="st1" d="M229.9,91c0,2.2-1.8,4-4,4c-2.2,0-4-1.8-4-4s4-12,4-12S229.9,88.8,229.9,91z"/>
		<path class="st1" d="M252.9,91c0,2.2-1.8,4-4,4c-2.2,0-4-1.8-4-4s4-12,4-12S252.9,88.8,252.9,91z"/>
		<path class="st1" d="M229.9,115c0,2.2-1.8,4-4,4c-2.2,0-4-1.8-4-4s4-12,4-12S229.9,112.8,229.9,115z"/>
		<path class="st1" d="M252.9,115c0,2.2-1.8,4-4,4c-2.2,0-4-1.8-4-4s4-12,4-12S252.9,112.8,252.9,115z"/>
		<path class="st1" d="M229.9,139c0,2.2-1.8,4-4,4c-2.2,0-4-1.8-4-4s4-12,4-12S229.9,136.8,229.9,139z"/>
		<path class="st1" d="M252.9,139c0,2.2-1.8,4-4,4c-2.2,0-4-1.8-4-4s4-12,4-12S252.9,136.8,252.9,139z"/>
	</g>
	<path class="st2" d="M143.3,79H11.7C5.2,79,0,73.8,0,67.3V11.7C0,5.2,5.2,0,11.7,0h131.7c6.4,0,11.7,5.2,11.7,11.7v55.7
		C155,73.8,149.8,79,143.3,79z"/>
	<polygon class="st2" points="81,72 81,91 98.5,73.5 	"/>
	<polygon class="st2" points="144.5,72 144.5,91 127,73.5 	"/>
	<text transform="matrix(1 0 0 1 17.5947 35.2842)"><tspan x="0" y="0" class="st3 st4">ONDE ESTÁ </tspan><tspan x="0" y="25.6" class="st3 st4">O PAPAI?</tspan></text>
</g>
</svg>
